<ttFont>
          <CharString index="0">
            -39 callsubr
            20 63 149 47 105 2 -9 -10 -7 -13 -9 -16 -46 -83 -31 -78 -37 -88 -56 -133 -55 -140 -23 -100 -58 callsubr
            return
          </CharString>
          <CharString index="1">
            rmoveto
            39 -32 -47 88 -15 hhcurveto
            -5 -7 -2 -7 -6 hvcurveto
            -46 -48 -47 -39 -53 -43 rrcurveto
            -54 callgsubr
            -2 9 -1 9 21 72 61 34 35 vhcurveto
            -25 11 42 -74 22 hhcurveto
            12 25 15 4 1 -48 callsubr
          </CharString>
          <CharString index="2">
            rmoveto
            -104 callgsubr
            -187 hmoveto
            -104 callgsubr
            return
          </CharString>
          <CharString index="3">
            -105 callsubr
            endchar
          </CharString>
          <CharString index="4">
            rmoveto
            -107 callsubr
            7 9 vvcurveto
            81 87 216 23 52 vhcurveto
            39 89 88 191 63 48 rrcurveto
            return
          </CharString>
          <CharString index="5">
            -91 callsubr
            4 -81 callgsubr
            20 63 149 47 105 2 return
          </CharString>
          <CharString index="6">
            -12 -6 9 17 67 85 193 44 36 hvcurveto
            -33 callsubr
            -27 -35 -26 -31 -15 -76 callgsubr
            75 74 92 110 62 hvcurveto
            -15 -43 -6 -42 -37 vvcurveto
            -47 13 -36 41 return
          </CharString>
          <CharString index="7">
            hintmask 11101110
            616 -25 callsubr
            hintmask 11011110
            -107 callgsubr
            return
          </CharString>
          <CharString index="8">
            698 -89 callsubr
            51 hmoveto
            -65 -26 -53 -44 -40 hvcurveto
            -75 callgsubr
            229 hlineto
            return
          </CharString>
          <CharString index="9">
            -14 callgsubr
            -76 99 -178 -61 callgsubr
            -24 callgsubr
            vhcurveto
            -47 248 -86 callgsubr
            return
          </CharString>
          <CharString index="10">
            vstem
            264 698 -103 callsubr
            return
          </CharString>
          <CharString index="11">
            466 -97 callgsubr
            return
          </CharString>
          <CharString index="12">
            29 callsubr
            3 4 vvcurveto
            18 -19 7 -22 -39 -32 -29 -23 -24 40 -14 9 -3 vhcurveto
            8 15 37 39 16 3 rrcurveto
            return
          </CharString>
          <CharString index="13">
            hintmask 01111111
            -96 callsubr
            hintmask 10111111
            -98 callgsubr
            return
          </CharString>
          <CharString index="14">
            hlineto
            -107 callsubr
            8 9 vvcurveto
            return
          </CharString>
          <CharString index="15">
            rmoveto
            -40 32 46 -88 15 hhcurveto
            6 7 3 7 6 hvcurveto
            46 48 47 39 53 43 rrcurveto
            0 -17 callgsubr
            2 -9 1 -9 -22 -71 -62 -33 -35 vhcurveto
            24 -12 -41 75 -22 hhcurveto
            -12 -25 -15 -5 0 -48 callsubr
          </CharString>
          <CharString index="16">
            -10 callsubr
            -1 -3 -3 vvcurveto
            -8 5 -5 return
          </CharString>
          <CharString index="17">
            -85 -36 -90 -131 -52 hhcurveto
            -14 -5 14 20 88 73 152 53 46 -8 callsubr
            -38 28 callgsubr
            -72 -33 -124 -1 -53 rrcurveto
            -53 25 -29 32 47 38 7 123 98 vhcurveto
            -57 -152 rlineto
            -53 -20 -42 -92 -74 hhcurveto
            -28 -20 17 25 11 5 27 13 4 hvcurveto
            13 -6 -18 13 -19 hhcurveto
            -30 -18 -29 -28 -61 66 -20 51 72 69 35 56 45 hvcurveto
            48 60 26 100 26 72 43 122 38 116 47 30 rrcurveto
            return
          </CharString>
          <CharString index="18">
            rmoveto
            -17 -20 0 -21 hhcurveto
            -96 -147 -16 -114 -30 callsubr
            47 72 17 vhcurveto
            80 18 192 -3 57 56 rrcurveto
            return
          </CharString>
          <CharString index="19">
            -97 -48 -172 -17 -126 hhcurveto
            -55 -16 28 37 90 129 257 50 90 hvcurveto
            42 75 42 64 30 23 rrcurveto
            -180 hlineto
            -61 callsubr
            -86 -82 23 callgsubr
            -43 -102 callsubr
            -6 -7 -10 -19 -3 -5 rrcurveto
            -96 -173 -143 -270 -131 vvcurveto
            -35 12 -21 28 vhcurveto
            261 hlineto
            13 14 0 15 hhcurveto
            90 74 8 121 38 hvcurveto
            return
          </CharString>
          <CharString index="20">
            -64 -40 -95 -222 -63 hhcurveto
            -20 -7 16 22 36 19 52 5 14 hvcurveto
            17 48 44 94 35 49 rrcurveto
            -48 hlineto
            -41 -10 -2 -20 -14 hvcurveto
            -62 -90 -38 -157 -45 vvcurveto
            -56 24 -26 32 37 62 20 113 80 vhcurveto
            return
          </CharString>
          <CharString index="21">
            5 callgsubr
            -164 hlineto
            -8 -11 0 -15 hhcurveto
            -107 -106 -6 -131 -49 hvcurveto
            -1 -2 0 -1 -2 vvcurveto
            42 callsubr
            2 -81 callgsubr
            35 60 return
          </CharString>
          <CharString index="22">
            2 2 0 2 hhcurveto
            -2 -17 -56 -81 -16 -18 rrcurveto
            -1 3 4 -1 4 hhcurveto
            46 53 86 28 15 hvcurveto
            12 23 8 24 21 vvcurveto
            19 -7 15 -15 9 vhcurveto
            return
          </CharString>
          <CharString index="23">
            9 -18 22 -66 callsubr
            5 1 3 3 vvcurveto
            8 -4 3 -3 -3 -3 callsubr
            return
          </CharString>
          <CharString index="24">
            hlineto
            -57 callgsubr
            -85 23 callgsubr
            -40 -91 callsubr
            3 -81 callgsubr
            65 21 139 55 119 hhcurveto
            -19 -37 -186 -408 -87 -224 rrcurveto
            92 hlineto
            -1 2 0 3 4 vvcurveto
            return
          </CharString>
          <CharString index="25">
            203 rmoveto
            8 13 3 16 12 vvcurveto
            9 -3 7 -3 11 callsubr
            -5 -3 vhcurveto
            -31 -59 -13 -22 -27 -34 rrcurveto
            -47 -36 -65 -60 -62 hhcurveto
            -50 return
          </CharString>
          <CharString index="26">
            -25 -62 -15 -62 -48 vvcurveto
            -62 25 -22 31 -74 callsubr
            return
          </CharString>
          <CharString index="27">
            -86 51 -36 62 113 59 71 82 41 vhcurveto
            -71 callsubr
            return
          </CharString>
          <CharString index="28">
            -25 -42 hvcurveto
            -18 -8 -29 -13 vvcurveto
            -8 5 0 6 12 47 91 51 6 -1 5 -1 5 vhcurveto
            return
          </CharString>
          <CharString index="29">
            rmoveto
            -4 -7 -26 -45 -59 -93 rrcurveto
            -53 -34 -53 -56 -37 hhcurveto
            30 callgsubr
            21 hvcurveto
            return
          </CharString>
          <CharString index="30">
            rmoveto
            -58 -5 -67 -59 -59 hhcurveto
            -15 -17 5 15 26 42 46 10 10 hvcurveto
            26 26 32 18 25 hhcurveto
            21 7 -14 -15 hvcurveto
            return
          </CharString>
          <CharString index="31">
            517 246 rmoveto
            -45 -24 -31 -42 -43 hhcurveto
            -17 -16 7 14 -10 hvcurveto
            13 33 8 34 34 vvcurveto
            return
          </CharString>
          <CharString index="32">
            2 -5 1 -6 -5 -5 -1 -3 -1 vhcurveto
            -20 -46 rlineto
            -4 hlineto
            -84 -64 -66 -86 -40 20 -34 54 43 55 23 34 4 -1 3 -2 -1 -1 0 -2 -2 hvcurveto
            -22 -21 -25 -16 -27 hhcurveto
            -28 -12 20 27 58 51 79 48 hvcurveto
            9 8 -2 1 hhcurveto
            3 2 1 3 1 hvcurveto
            endchar
          </CharString>
          <CharString index="33">
            48 60 60 38 28 vhcurveto
            27 36 -12 callsubr
            return
          </CharString>
          <CharString index="34">
            rmoveto
            1 6 0 5 6 vvcurveto
            93 -85 26 -85 -73 -125 -35 -98 -39 21 -25 28 9 10 2 7 11 vhcurveto
            -5 12 -2 13 12 vvcurveto
            59 47 56 61 57 22 -34 -40 -66 -57 -71 -72 -17 vhcurveto
            5 -14 -20 4 -19 hhcurveto
            -29 -16 -13 -16 -13 12 -11 14 hvcurveto
            15 23 12 21 hhcurveto
            62 44 -48 -68 -76 -60 -69 -79 -55 -41 27 56 26 14 30 22 30 hvcurveto
            9 -13 -15 6 -16 hhcurveto
            -51 -32 -53 -45 -88 87 -36 88 127 137 69 132 57 -38 50 -65 14 hvcurveto
            72 26 55 50 7 61 rrcurveto
            return
          </CharString>
          <CharString index="35">
            -54 -24 -53 -92 -64 -69 callgsubr
            return
          </CharString>
          <CharString index="36">
            -12 15 21 -7 20 hhcurveto
            39 73 41 70 9 -2 6 28 callsubr
            -4 -2 hvcurveto
            return
          </CharString>
          <CharString index="37">
            -36 callgsubr
            154 hmoveto
            -87 callgsubr
            endchar
          </CharString>
          <CharString index="38">
            vstem
            756 -18 callsubr
            -17 68 -23 85 -20 69 rrcurveto
            90 -27 -26 46 -77 hhcurveto
            -95 -42 -54 -84 -42 hvcurveto
            -1 -1 0 -2 -2 vvcurveto
            -5 2 -7 3 1 -34 callsubr
            1 vhcurveto
            56 42 34 22 28 hhcurveto
            78 81 -248 -95 -76 -58 -125 -17 -75 hvcurveto
            45 callsubr
            15 3 19 5 23 vhcurveto
            64 302 232 227 128 89 rrcurveto
            return
          </CharString>
          <CharString index="39">
            -74 callgsubr
            76 142 -63 callgsubr
            endchar
          </CharString>
          <CharString index="40">
            297 rmoveto
            16 -5 -15 21 -20 hhcurveto
            -8 -9 -3 -8 -9 hvcurveto
            6 -4 4 -10 -9 vvcurveto
            -40 -46 -16 -51 -4 vhcurveto
            41 123 50 136 32 73 rrcurveto
            -108 hlineto
            -373 -321 rlineto
            -23 -13 -14 -19 -29 vvcurveto
            -23 15 -11 14 vhcurveto
            43 -46 71 82 hhcurveto
            51 69 -27 -14 60 hvcurveto
            -32 -85 -29 -76 -11 -25 rrcurveto
            106 hlineto
            6 30 19 65 25 78 rrcurveto
            -1 7 8 0 7 hhcurveto
            105 51 58 50 6 -1 6 -1 5 hvcurveto
            return
          </CharString>
          <CharString index="41">
            vhcurveto
            261 hlineto
            13 14 0 14 hhcurveto
            90 75 9 120 38 hvcurveto
            1 return
          </CharString>
          <CharString index="42">
            -27 callgsubr
            -26 callsubr
            return
          </CharString>
          <CharString index="43">
            vstem
            790 343 rmoveto
            2 14 1 14 13 vvcurveto
            170 -140 131 -191 -221 -200 -176 -208 -169 140 -131 191 206 187 153 189 25 vhcurveto
            -76 1 rmoveto
            -169 -20 -149 -137 -163 hhcurveto
            -152 -111 117 152 185 158 158 176 151 112 -118 -152 -12 -1 -12 -1 -12 hvcurveto
            return
          </CharString>
          <CharString index="44">
            1 2 1 vhcurveto
            return
          </CharString>
          <CharString index="45">
            508 -37 callgsubr
            -33 -26 -36 -28 -18 hhcurveto
            -12 -6 9 15 46 51 118 15 44 hvcurveto
            5 17 3 15 12 vvcurveto
            return
          </CharString>
          <CharString index="46">
            -16 -16 0 -15 hhcurveto
            return
          </CharString>
          <CharString index="47">
            rmoveto
            -58 callgsubr
            return
          </CharString>
          <CharString index="48">
            322 532 -63 callgsubr
            -33 -331 -80 callgsubr
            -13 -6 12 18 61 49 94 39 77 hvcurveto
            7 14 21 37 -35 callsubr
            return
          </CharString>
          <CharString index="49">
            rrcurveto
            -55 callsubr
            return
          </CharString>
          <CharString index="50">
            430 201 rmoveto
            -23 callgsubr
            7 -4 -4 -44 -81 -36 -28 vhcurveto
            -58 -44 -57 -50 -62 hhcurveto
            -50 -21 35 48 103 96 151 82 20 8 -11 -15 hvcurveto
            -52 -51 9 -24 vvcurveto
            -25 19 -12 21 39 25 40 40 42 -37 38 -62 -139 -111 -145 -135 -70 35 -58 95 141 61 106 105 64 vhcurveto
            return
          </CharString>
          <CharString index="51">
            -4 -4 -48 11 callgsubr
            -37 -29 -33 -24 -17 hhcurveto
            -14 -6 12 18 return
          </CharString>
          <CharString index="52">
            129 hlineto
            -3 5 -1 return
          </CharString>
          <CharString index="53">
            510 201 8 callsubr
            -2 -3 -2 -5 -2 vhcurveto
            -52 -27 -66 -122 -57 hhcurveto
            -14 -3 13 15 48 49 114 17 43 hvcurveto
            8 20 4 16 14 vvcurveto
            33 -21 17 -36 -32 -35 -5 -58 -79 vhcurveto
            91 100 60 79 43 85 rrcurveto
            11 22 16 36 29 vvcurveto
            27 -13 20 -40 vhcurveto
            return
          </CharString>
          <CharString index="54">
            556 rmoveto
            5 14 3 13 13 vvcurveto
            65 -70 47 -107 -292 -202 -300 -219 -136 71 -83 164 133 137 54 97 95 vhcurveto
            19 20 39 48 38 vvcurveto
            14 -6 12 -13 9 vhcurveto
            -120 -49 -178 -127 -137 hhcurveto
            -110 -52 64 114 235 206 243 209 hvcurveto
            return
          </CharString>
          <CharString index="55">
            -50 callsubr
            -69 return
          </CharString>
          <CharString index="56">
            -102 -77 -108 -71 -110 8 callgsubr
            12 -2 callgsubr
            27 16 42 callgsubr
            -1 2 vhcurveto
            -32 56 -100 79 -58 41 rrcurveto
            91 56 179 125 38 vvcurveto
            42 callgsubr
            -1 21 callgsubr
            -1 vhcurveto
            endchar
          </CharString>
          <CharString index="57">
            hhcurveto
            -142 -101 -177 -138 return
          </CharString>
          <CharString index="58">
            rmoveto
            9 4 -7 -10 -27 -24 -49 -4 -9 hvcurveto
            -46 -94 -74 -91 -67 -79 rrcurveto
            return
          </CharString>
          <CharString index="59">
            0 0 0 hvcurveto
            endchar
          </CharString>
          <CharString index="60">
            rrcurveto
            -34 hlineto
            -17 -33 -31 -13 -3 2 -2 6 hvcurveto
            55 hlineto
            return
          </CharString>
          <CharString index="61">
            rmoveto
            2 4 2 3 3 vvcurveto
            13 -19 7 -20 -18 -18 -5 -12 -7 vhcurveto
            -39 -23 -51 -34 -44 -58 -5 68 -72 hhcurveto
            -100 -60 -109 -89 -61 28 -51 64 104 57 116 84 9 0 9 -1 8 hvcurveto
            -19 19 25 -6 22 hhcurveto
            11 10 2 2 7 hvcurveto
            return
          </CharString>
          <CharString index="62">
            rlineto
            -54 callgsubr
            -4 19 -3 16 8 7 0 3 2 vhcurveto
            return
          </CharString>
          <CharString index="63">
            -10 -1 -34 callsubr
            hvcurveto
            return
          </CharString>
          <CharString index="64">
            28 3 -40 callgsubr
            return
          </CharString>
          <CharString index="65">
            rmoveto
            -51 -18 -32 -39 -33 hhcurveto
            -26 -15 25 38 71 -26 callgsubr
            252 -375 -29 callsubr
            endchar
          </CharString>
          <CharString index="66">
            -556 -752 -45 callsubr
            return
          </CharString>
          <CharString index="67">
            358 rmoveto
            3 23 2 22 22 vvcurveto
            145 -79 128 -201 vhcurveto
            -171 hlineto
            -8 -11 0 -15 hhcurveto
            -107 -106 -6 -131 -49 hvcurveto
            -1 -2 0 -1 -2 vvcurveto
            42 callsubr
            2 -81 callgsubr
            37 63 140 37 91 7 return
          </CharString>
          <CharString index="68">
            -57 callgsubr
            -86 -13 -116 -40 -91 callsubr
            4 -81 callgsubr
            return
          </CharString>
          <CharString index="69">
            -78 56 -55 55 -68 77 rrcurveto
            1 21 callgsubr
            hhcurveto
            -12 -34 -27 -16 -1 0 -2 2 callgsubr
            33 -57 99 -79 58 -41 rrcurveto
            -92 -55 -179 -125 -38 -4 callgsubr
            return
          </CharString>
          <CharString index="70">
            1 -14 callsubr
            return
          </CharString>
          <CharString index="71">
            333 -30 callgsubr
            return
          </CharString>
          <CharString index="72">
            12 9 rrcurveto
            -17 callsubr
            return
          </CharString>
          <CharString index="73">
            0 0 1 return
          </CharString>
          <CharString index="74">
            -17 callsubr
            -29 callgsubr
            return
          </CharString>
          <CharString index="75">
            35 -20 17 -37 -85 -64 -61 -19 -20 vhcurveto
            3 10 8 18 16 vvcurveto
            20 -5 11 -50 vhcurveto
            -14 -16 0 -12 hhcurveto
            return
          </CharString>
          <CharString index="76">
            -7 -7 -23 callsubr
            return
          </CharString>
          <CharString index="77">
            -23 9 -23 22 -23 hvcurveto
            64 35 return
          </CharString>
          <CharString index="78">
            rmoveto
            -51 -17 -33 -38 -33 hhcurveto
            -26 -15 24 39 70 -26 callgsubr
            return
          </CharString>
          <CharString index="79">
            hlineto
            14 33 54 9 -37 callsubr
            endchar
          </CharString>
          <CharString index="80">
            39 38 -12 -46 -53 -56 -39 -49 -9 -8 1 3 -8 hvcurveto
            -8 -11 -4 -10 -9 vvcurveto
            -23 22 -13 28 return
          </CharString>
          <CharString index="81">
            -34 callgsubr
            7 -4 return
          </CharString>
          <CharString index="82">
            -24 callsubr
            hhcurveto
            return
          </CharString>
          <CharString index="83">
            688 rmoveto
            12 -4 -12 3 -20 return
          </CharString>
          <CharString index="84">
            84 259 15 15 37 -3 -20 return
          </CharString>
          <CharString index="85">
            14 15 1 4 2 hvcurveto
            0 211 374 121 211 vhcurveto
            48 36 23 30 14 21 rrcurveto
            9 -526 -5 callgsubr
            vhcurveto
            return
          </CharString>
          <CharString index="86">
            630 rmoveto
            -92 -166 -107 -242 -118 vvcurveto
            return
          </CharString>
          <CharString index="87">
            4 -7 -8 2 -7 hhcurveto
            -35 -32 -36 -39 return
          </CharString>
          <CharString index="88">
            rmoveto
            3 -16 2 -18 -18 vvcurveto
            return
          </CharString>
          <CharString index="89">
            698 rmoveto
            -15 -21 1 -21 hhcurveto
            -34 -34 -3 -18 -14 hvcurveto
            -69 -90 -99 -147 -75 -104 return
          </CharString>
          <CharString index="90">
            -3 -3 0 -4 return
          </CharString>
          <CharString index="91">
            0 -1 0 return
          </CharString>
          <CharString index="92">
            hstemhm
            165 31 306 112 return
          </CharString>
          <CharString index="93">
            0 2 callgsubr
            return
          </CharString>
          <CharString index="94">
            -13 -34 -35 callgsubr
            return
          </CharString>
          <CharString index="95">
            26 41 6 callsubr
            return
          </CharString>
          <CharString index="96">
            -122 -10 40 163 28 146 30 return
          </CharString>
          <CharString index="97">
            hvcurveto
            -1 -4 return
          </CharString>
          <CharString index="98">
            1 0 1 return
          </CharString>
          <CharString index="99">
            hvcurveto
            4 4 2 4 2 vvcurveto
            3 -1 1 -3 -66 return
          </CharString>
          <CharString index="100">
            vvcurveto
            10 -2 return
          </CharString>
          <CharString index="101">
            -27 callsubr
            63 65 42 55 22 vhcurveto
            return
          </CharString>
          <CharString index="102">
            22 10 31 25 20 vhcurveto
            16 -8 -23 14 -27 hhcurveto
            -60 -28 -52 -41 return
          </CharString>
          <CharString index="103">
            -21 109 -49 callsubr
            158 58 81 208 56 hhcurveto
            return
          </CharString>
          <CharString index="104">
            -2 1 callgsubr
            return
          </CharString>
          <CharString index="105">
            rmoveto
            5 1 -20 3 -13 hhcurveto
            -7 -6 -1 -2 hvcurveto
            -46 -317 rlineto
            -5 -1 20 -3 13 hhcurveto
            7 6 0 3 hvcurveto
            return
          </CharString>
          <CharString index="106">
            283 -33 43 652 45 return
          </CharString>
          <CharString index="107">
            hstemhm
            27 97 240 7 return
          </CharString>
          <CharString index="108">
            16 -21 26 -21 369 55 147 41 23 45 22 -20 hstemhm
            85 74 134 41 3 74 134 47 return
          </CharString>
          <CharString index="109">
            hlineto
            -45 -116 rlineto
            -1 -1 -1 -1 vvcurveto
            -16 37 -48 7 vhcurveto
            0 -9 callsubr
            vvcurveto
            70 182 rlineto
            return
          </CharString>
          <CharString index="110">
            267 -9 44 -42 63 642 -20 return
          </CharString>
          <CharString index="111">
            -14 -33 -35 callgsubr
            return
          </CharString>
          <CharString index="112">
            -55 -201 28 167 62 -33 33 callsubr
            return
          </CharString>
          <CharString index="113">
            19 32 rrcurveto
            return
          </CharString>
          <CharString index="114">
            1 -11 hhcurveto
            return
          </CharString>
          <CharString index="115">
            rmoveto
            7 13 3 14 12 -7 callsubr
            7 -3 return
          </CharString>
          <CharString index="116">
            -58 callsubr
            8 return
          </CharString>
          <CharString index="117">
            -7 85 322 -20 return
          </CharString>
          <CharString index="118">
            -2 -2 -2 return
          </CharString>
          <CharString index="119">
            -26 -184 rlineto
            -103 hlineto
            -13 callsubr
            139 hlineto
            return
          </CharString>
          <CharString index="120">
            rmoveto
            0 -53 -143 -48 -128 vhcurveto
            -100 5 9 11 -103 6 rrcurveto
            endchar
          </CharString>
          <CharString index="121">
            -55 54 -96 71 71 vvcurveto
            61 55 56 79 return
          </CharString>
          <CharString index="122">
            hlineto
            14 14 25 8 2 -1 2 callgsubr
            return
          </CharString>
          <CharString index="123">
            -62 28 -51 64 83 55 77 74 18 vhcurveto
            return
          </CharString>
          <CharString index="124">
            -72 -7 43 633 29 return
          </CharString>
          <CharString index="125">
            15 callgsubr
            57 39 115 20 28 vhcurveto
            return
          </CharString>
          <CharString index="126">
            hstemhm
            49 95 292 112 return
          </CharString>
          <CharString index="127">
            -25 -77 47 694 48 hstem
            13 480 vstem
            280 712 rmoveto
            return
          </CharString>
          <CharString index="128">
            -7 79 -51 -21 329 64 hstemhm
            176 90 68 93 hintmask 10111000
            return
          </CharString>
          <CharString index="129">
            vstem
            200 288 rmoveto
            4 callsubr
            return
          </CharString>
          <CharString index="130">
            hvcurveto
            -26 -30 -22 -16 vvcurveto
            -17 15 -9 17 37 23 38 37 return
          </CharString>
          <CharString index="131">
            49 15 69 311 135 hhcurveto
            return
          </CharString>
          <CharString index="132">
            vhcurveto
            -1 -6 -1 -5 -5 vvcurveto
            -31 return
          </CharString>
          <CharString index="133">
            27 callgsubr
            366 vstem
            return
          </CharString>
          <CharString index="134">
            718 303 rmoveto
            return
          </CharString>
          <CharString index="135">
            -4 11 callsubr
            return
          </CharString>
          <CharString index="136">
            1 4 1 return
          </CharString>
          <CharString index="137">
            -63 hhcurveto
            -19 -6 15 21 40 23 60 5 15 hvcurveto
            return
          </CharString>
          <CharString index="138">
            -7 43 588 81 -7 -20 return
          </CharString>
          <CharString index="139">
            21 -21 638 68 -37 29 return
          </CharString>
          <CharString index="140">
            48 318 -20 return
          </CharString>
          <CharString index="141">
            91 123 91 return
          </CharString>
          <CharString index="142">
            -1 1 0 return
          </CharString>
          <CharString index="143">
            -265 -235 27 231 33 callsubr
            return
          </CharString>
          <CharString index="144">
            0 -2 hhcurveto
            return
          </CharString>
          <CharString index="145">
            -54 -19 67 259 79 11 -20 20 7 return
          </CharString>
          <CharString index="146">
            -47 248 -19 callsubr
            return
          </CharString>
          <CharString index="147">
            hstem
            33 91 205 53 return
          </CharString>
          <CharString index="148">
            hstemhm
            35 96 219 46 return
          </CharString>
          <CharString index="149">
            -4 3 -4 return
          </CharString>
          <CharString index="150">
            -30 -89 -4 52 callsubr
            hhcurveto
            21 49 return
          </CharString>
          <CharString index="151">
            51 680 67 hstem
            552 47 vstem
            return
          </CharString>
          <CharString index="152">
            -55 callsubr
            8 10 vvcurveto
            return
          </CharString>
          <CharString index="153">
            0 -1 3 hvcurveto
            endchar
          </CharString>
          <CharString index="154">
            hstem
            -298 71 438 126 return
          </CharString>
          <CharString index="155">
            25 551 hstem
            -65 387 vstem
            return
          </CharString>
          <CharString index="156">
            hstemhm
            -50 72 2 91 return
          </CharString>
          <CharString index="157">
            61 151 37 hstemhm
            return
          </CharString>
          <CharString index="158">
            -85 12 callgsubr
            return
          </CharString>
          <CharString index="159">
            -4 0 -4 return
          </CharString>
        <CharString name=".notdef">
          -480 endchar
        </CharString>
        <CharString name="A">
          270 -30 callgsubr
          hstemhm
          225 31 306 112 hintmask 01111100
          526 -97 callgsubr
          hintmask 10111100
          -98 callgsubr
          endchar
        </CharString>
        <CharString name="AE">
          518 -9 45 -37 35 -13 -21 269 39 44 38 279 24 5 -20 -15 callsubr
          238 119 hintmask 1001110111000000
          1029 -25 callsubr
          hintmask 1001101111000000
          5 callgsubr
          -201 hlineto
          -65 -26 -53 -44 -40 hvcurveto
          hintmask 0011110111000000
          -75 callgsubr
          232 hlineto
          -28 -72 -28 -87 -52 vvcurveto
          -30 -84 callsubr
          hintmask 0101110111000000
          -95 -45 -171 -19 -99 callgsubr
          -325 -20 rmoveto
          -3 1 -3 -2 vvcurveto
          -12 -14 -9 -17 -10 -18 -45 -78 -24 -63 -33 -79 -35 -82 rcurveline
          -207 hlineto
          78 81 189 213 107 65 rrcurveto
          hintmask 1001101111000000
          -238 30 -89 callsubr
          endchar
        </CharString>
        <CharString name="Aacute">
          -36 callsubr
          47 138 -15 callsubr
          65 241 -94 callsubr
          300 253 -103 callgsubr
        </CharString>
        <CharString name="Acircumflex">
          -36 callsubr
          263 67 -15 callsubr
          327 47 -94 callsubr
          296 209 -106 callsubr
        </CharString>
        <CharString name="Adieresis">
          -36 callsubr
          84 96 -15 callsubr
          11 34 callsubr
          hintmask 0111111110000000
          -96 callsubr
          hintmask 1011111110000000
          -98 callgsubr
          325 252 -104 callsubr
        </CharString>
        <CharString name="Agrave">
          -36 callsubr
          47 138 -15 callsubr
          -43 240 hintmask 01111101
          466 -99 callsubr
          hintmask 10111110
          -4 -25 -9 -69 -38 vvcurveto
          -98 callgsubr
          21 258 -96 callgsubr
        </CharString>
        <CharString name="Aring">
          -36 callsubr
          -15 callsubr
          hintmask 01111100
          -96 callsubr
          hintmask 10111100
          -98 callgsubr
          endchar
        </CharString>
        <CharString name="Atilde">
          -36 callsubr
          175 49 -15 callsubr
          25 328 -94 callsubr
          360 326 rmoveto
          1 2 1 3 2 vvcurveto
          5 -4 3 -5 vhcurveto
          -16 -4 -41 -41 -47 -44 37 -48 hhcurveto
          -39 -38 -61 -7 -5 6 -4 5 hvcurveto
          10 10 30 43 46 38 -36 46 hhcurveto
          37 26 43 29 17 hvcurveto
          endchar
        </CharString>
        <CharString name="B">
          100 -15 51 302 43 287 30 hstemhm
          199 30 243 105 -68 105 hintmask 11110100
          614 24 callgsubr
          -163 hlineto
          -8 -11 0 -15 hhcurveto
          -107 -106 -6 -131 -49 hvcurveto
          -1 -2 0 -1 -2 vvcurveto
          42 callsubr
          2 -81 callgsubr
          33 57 109 32 90 13 36 5 rcurveline
          -5 -8 -5 -10 -5 -10 rrcurveto
          -45 -88 -166 -344 -109 vvcurveto
          -82 91 -24 91 vhcurveto
          hintmask 11111000
          213 161 105 134 72 -44 55 -112 21 hvcurveto
          hintmask 11110100
          71 15 112 51 10 112 rrcurveto
          -104 26 rmoveto
          52 callsubr
          -5 vvcurveto
          -69 -46 -83 -92 -28 vhcurveto
          3 -20 -18 1 -17 hhcurveto
          -20 -70 -5 -35 -4 5 -3 12 34 64 11 6 22 hvcurveto
          66 -9 30 -56 -63 vvcurveto
          -147 -125 -58 -112 -62 -33 8 52 103 83 175 56 122 vhcurveto
          26 57 41 81 37 48 70 -3 62 -21 7 -70 rrcurveto
          endchar
        </CharString>
        <CharString name="C">
          200 -29 54 434 50 callsubr
          53 131 332 11 131 65 -31 18 hintmask 11111010
          716 -53 callsubr
          hintmask 11111100
          -6 callsubr
          endchar
        </CharString>
        <CharString name="Ccedilla">
          171 -308 32 154 25 68 54 434 50 callsubr
          3 131 -125 212 245 11 131 65 -31 18 hintmask 1111110101000000
          666 -53 callsubr
          hintmask 1111101110000000
          -6 callsubr
          -434 -583 rmoveto
          -75 callsubr
        </CharString>
        <CharString name="D">
          230 -10 62 -61 45 629 33 hstem
          170 35 407 115 vstem
          723 -40 callsubr
          -5 -8 -5 -10 -5 -10 rrcurveto
          -39 -77 -173 -335 -127 -9 callgsubr
          32 11 40 10 30 hvcurveto
          32 101 41 97 45 97 26 56 42 81 36 48 7 callgsubr
        </CharString>
        <CharString name="E">
          90 -10 callgsubr
          hstemhm
          9 119 hintmask 11101000
          586 -25 callsubr
          hintmask 11011000
          -107 callgsubr
          endchar
        </CharString>
        <CharString name="Eacute">
          13 callgsubr
          203 241 -100 callsubr
          -54 122 -103 callgsubr
        </CharString>
        <CharString name="Ecircumflex">
          107 -10 callgsubr
          235 67 hstemhm
          39 119 490 47 -100 callsubr
          -33 70 -106 callsubr
        </CharString>
        <CharString name="Edieresis">
          107 -10 callgsubr
          64 96 hstemhm
          39 119 162 34 callsubr
          hintmask 11101111
          616 -25 callsubr
          hintmask 11011111
          -107 callgsubr
          -16 121 -104 callsubr
        </CharString>
        <CharString name="Egrave">
          13 callgsubr
          128 240 -100 callsubr
          -300 127 -96 callgsubr
        </CharString>
        <CharString name="Eth">
          251 -10 62 -61 45 546 65 18 33 hstem
          182 366 -358 35 407 115 vstem
          743 -40 callsubr
          -3 -4 -72 -136 -73 -173 rrcurveto
          -85 hlineto
          -13 -24 -43 -10 36 callgsubr
          1 hvcurveto
          99 hlineto
          -22 -54 -35 -71 -74 -9 callgsubr
          68 32 73 25 64 hvcurveto
          102 hlineto
          13 24 43 10 -37 callsubr
          -117 hlineto
          41 100 52 126 72 96 7 callgsubr
        </CharString>
        <CharString name="Euro">
          166 -15 54 192 35 76 35 197 33 hstem
          85 125 380 57 vstem
          664 521 rmoveto
          45 -34 43 -109 -146 -133 -103 -115 -80 vhcurveto
          -9 -13 rlineto
          -67 16 callgsubr
          56 hlineto
          -12 -25 -11 -25 -7 -25 rrcurveto
          -72 16 callgsubr
          71 hlineto
          -5 -24 -3 -23 -22 vvcurveto
          -103 58 -74 143 100 130 36 97 77 vhcurveto
          6 7 7 24 11 vvcurveto
          4 -1 2 -1 11 callsubr
          -4 -4 vhcurveto
          -65 -54 -127 -56 -76 hhcurveto
          -94 -35 63 79 16 1 17 3 17 hvcurveto
          195 15 callsubr
          -213 hlineto
          4 18 5 18 8 18 9 21 rcurveline
          216 15 callsubr
          -225 hlineto
          92 48 98 105 112 hhcurveto
          30 38 -13 -32 -22 -22 -28 -30 hvcurveto
          -1 -5 -1 -4 -4 vvcurveto
          -25 22 -10 24 41 40 40 49 vhcurveto
          endchar
        </CharString>
        <CharString name="F">
          -100 21 -21 352 38 279 24 -24 29 hstemhm
          39 111 hintmask 11101000
          616 -25 callsubr
          hintmask 11011000
          -86 callsubr
          129 34 107 15 -47 -69 -41 -98 -43 -102 -47 callsubr
          -52 -127 -46 -121 -22 -94 15 callgsubr
          72 67 175 30 73 vhcurveto
          207 -44 callgsubr
          -222 hlineto
          39 92 44 98 41 58 rrcurveto
          23 16 22 3 37 hhcurveto
          50 46 -79 callsubr
          endchar
        </CharString>
        <CharString name="G">
          260 -38 44 277 28 148 50 callsubr
          51 123 342 11 131 65 -60 69 hintmask 11111101
          792 313 rmoveto
          -293 hlineto
          -30 -42 -83 0 hvcurveto
          6 43 111 -1 61 hhcurveto
          -142 -23 -153 -88 -131 hhcurveto
          -91 -70 46 123 231 204 266 203 hvcurveto
          hintmask 11111110
          -27 callsubr
          78 80 64 73 65 -70 47 -107 -280 -216 -289 -223 -147 96 -87 176 189 141 89 187 69 vhcurveto
          36 6 24 18 10 51 rrcurveto
          endchar
        </CharString>
        <CharString name="H">
          200 -9 45 -15 -21 352 38 279 29 hstemhm
          79 111 305 122 hintmask 01111100
          793 698 rmoveto
          -63 -12 -25 -43 -22 hvcurveto
          -20 -37 -47 -98 -44 -104 rrcurveto
          -283 hlineto
          42 95 80 167 59 45 rrcurveto
          -179 -93 callsubr
          72 68 176 31 72 vhcurveto
          283 hlineto
          -50 -124 -31 -93 -69 vvcurveto
          hintmask 10111100
          -37 13 -28 48 33 99 24 -43 callsubr
          -13 -4 -10 hhcurveto
          -28 -9 29 30 97 81 191 54 115 hvcurveto
          34 73 55 99 36 28 rrcurveto
          endchar
        </CharString>
        <CharString name="I">
          -200 -7 43 633 29 hstem
          103 118 vstem
          284 698 -103 callsubr
          endchar
        </CharString>
        <CharString name="IJ">
          272 -72 90 -25 43 631 31 -29 29 34 callgsubr
          49 608 vstem
          712 -46 callgsubr
          15 46 90 39 84 18 rrcurveto
          1 hlineto
          -66 -23 -85 -174 -32 -80 -25 -62 -116 -263 -85 -103 rrcurveto
          -29 -24 -35 -29 -40 -25 callgsubr
          138 480 136 48 vhcurveto
          72 205 50 70 71 23 rrcurveto
          -488 1 -103 callsubr
          endchar
        </CharString>
        <CharString name="Iacute">
          29 callgsubr
          123 241 -97 callsubr
          82 112 -103 callgsubr
        </CharString>
        <CharString name="Icircumflex">
          17 callsubr
          231 67 34 callgsubr
          375 47 -97 callsubr
          68 56 -106 callsubr
        </CharString>
        <CharString name="Idieresis">
          17 callsubr
          64 96 34 callgsubr
          30 34 callsubr
          -97 callsubr
          68 111 -104 callsubr
        </CharString>
        <CharString name="Igrave">
          29 callgsubr
          7 240 -97 callsubr
          -205 117 -96 callgsubr
        </CharString>
        <CharString name="Itilde">
          17 callsubr
          57 49 -6 49 34 callgsubr
          20 328 -97 callsubr
          79 130 rmoveto
          1 2 1 3 2 vvcurveto
          5 -4 3 -5 vhcurveto
          -16 -4 -41 -41 -47 -44 37 -48 hhcurveto
          -39 -38 -61 -7 -5 6 -4 5 hvcurveto
          10 10 30 43 46 38 -36 46 hhcurveto
          37 26 43 29 17 hvcurveto
          endchar
        </CharString>
        <CharString name="J">
          -90 -72 90 649 31 hstem
          -20 608 -68 callgsubr
          endchar
        </CharString>
        <CharString name="Jcircumflex">
          -39 -72 90 649 31 242 67 hstem
          -20 608 114 47 -68 callgsubr
          49 68 -106 callsubr
        </CharString>
        <CharString name="K">
          160 22 -21 668 29 -11 18 hstemhm
          73 112 hintmask 10110000
          871 687 rmoveto
          3 2 2 3 10 -43 4 -22 -168 -289 -263 -151 -105 hvcurveto
          hintmask 11010000
          41 104 113 245 75 57 rrcurveto
          -180 hlineto
          -16 -15 0 -15 hhcurveto
          -86 -85 23 callgsubr
          -40 -91 callsubr
          3 -81 callgsubr
          20 63 150 47 104 2 -5 -7 -10 -13 -2 -4 -96 -136 -129 -379 -32 -122 18 callsubr
          25 36 34 40 37 37 rrcurveto
          -90 15 127 -243 61 hhcurveto
          0 45 -3 40 19 19 1 2 10 vhcurveto
          -78 52 -144 188 -47 156 rrcurveto
          hintmask 10110000
          130 144 239 159 90 hhcurveto
          endchar
        </CharString>
        <CharString name="L">
          90 -1 35 635 29 hstem
          62 116 vstem
          564 -73 callgsubr
          endchar
        </CharString>
        <CharString name="Ldotaccent">
          90 -7 71 -65 35 229 114 292 29 21 25 hstemhm
          32 85 121 108 53 36 hintmask 10111111
          564 -12 callgsubr
          hintmask 01111111
          -88 callsubr
          -114 194 -33 callgsubr
        </CharString>
        <CharString name="Lslash">
          113 -1 35 226 42 367 29 hstem
          -48 338 -208 116 vstem
          584 -73 callgsubr
          -573 138 rmoveto
          -8 -19 -35 -6 35 callsubr
          0 hvcurveto
          312 hlineto
          8 18 35 6 1 -48 callsubr
        </CharString>
        <CharString name="M">
          360 -9 45 -15 -21 669 29 hstemhm
          73 65 230 97 170 121 hintmask 01111100
          966 698 rmoveto
          -47 -51 -12 -35 -30 hvcurveto
          -53 -63 -234 -282 -83 -104 rrcurveto
          2 20 0 22 19 vvcurveto
          79 -10 241 -11 64 vhcurveto
          46 -9 -29 5 -33 -10 -10 0 -10 hhcurveto
          -50 -83 callsubr
          92 199 449 25 47 vhcurveto
          12 -80 8 -112 -97 vvcurveto
          -96 -7 -82 -18 -23 vhcurveto
          -10 21 19 -5 17 hhcurveto
          33 10 12 65 51 hvcurveto
          91 118 79 106 116 130 18 21 19 17 17 16 -59 -112 -112 -224 -25 -114 rrcurveto
          -5 -22 -3 -22 -19 vvcurveto
          hintmask 10111100
          -41 15 -32 52 33 100 24 29 2 -40 callgsubr
          -13 -56 callgsubr
          57 111 43 33 rrcurveto
          endchar
        </CharString>
        <CharString name="N">
          160 32 callsubr
          41 callgsubr
          93 60 330 11 hintmask 11011110
          14 callgsubr
          hintmask 10111110
          -89 callgsubr
          -28 callgsubr
          endchar
        </CharString>
        <CharString name="NULL">
          -480 endchar
        </CharString>
        <CharString name="Nacute">
          223 32 callsubr
          27 138 41 callgsubr
          93 60 -32 241 121 11 hintmask 1101110110000000
          14 callgsubr
          hintmask 1011110110000000
          -89 callgsubr
          rrcurveto
          hintmask 1101111010000000
          -28 callgsubr
          -130 113 -103 callgsubr
        </CharString>
        <CharString name="Ntilde">
          223 32 callsubr
          155 49 41 callgsubr
          49 328 -284 60 330 11 hintmask 1101111010000000
          14 callgsubr
          hintmask 1011111010000000
          -89 callgsubr
          rrcurveto
          hintmask 1101110110000000
          -28 callgsubr
          -102 186 rmoveto
          1 2 1 3 2 vvcurveto
          5 -4 3 -5 vhcurveto
          -16 -4 -41 -41 -47 -44 37 -48 hhcurveto
          -39 -38 -61 -7 -5 6 -4 5 hvcurveto
          10 10 30 43 46 38 -36 46 hhcurveto
          37 26 43 29 17 hvcurveto
          endchar
        </CharString>
        <CharString name="O">
          -1 callsubr
          hstem
          63 120 552 84 vstem
          778 303 rmoveto
          -98 callsubr
          endchar
        </CharString>
        <CharString name="OE">
          638 -33 43 -11 35 318 38 272 45 -38 29 51 callgsubr
          552 84 43 119 hintmask 10101111
          1142 -24 callsubr
          5 callgsubr
          -178 hlineto
          -24 11 -19 -31 -5 hvcurveto
          -16 -26 -18 -38 -16 -36 rrcurveto
          94 -23 -78 66 -145 hhcurveto
          -61 callgsubr
          131 113 53 84 87 hvcurveto
          -4 -22 -3 -19 -16 vvcurveto
          -30 8 -18 23 -66 callsubr
          4 1 4 3 vvcurveto
          8 42 callsubr
          -2 -3 callsubr
          hintmask 01110111
          -96 -48 -168 -18 -99 callgsubr
          -471 -137 -86 callgsubr
          endchar
        </CharString>
        <CharString name="Oacute">
          -1 callsubr
          43 138 51 callgsubr
          357 241 -46 -59 callgsubr
          10 284 -103 callgsubr
        </CharString>
        <CharString name="Ocircumflex">
          -1 callsubr
          243 67 51 callgsubr
          552 84 -7 47 hintmask 11110100
          27 callsubr
          hintmask 11111000
          -98 callsubr
          16 224 -106 callsubr
        </CharString>
        <CharString name="Odieresis">
          -1 callsubr
          92 96 51 callgsubr
          300 34 callsubr
          -53 84 hintmask 11111100
          27 callsubr
          hintmask 11111010
          -98 callsubr
          32 295 -104 callsubr
        </CharString>
        <CharString name="Ograve">
          -1 callsubr
          36 47 callgsubr
          3 120 278 240 34 84 vstem
          27 callsubr
          -98 callsubr
          -240 282 -96 callgsubr
        </CharString>
        <CharString name="Oslash">
          283 -62 72 -43 43 652 45 -45 50 hstem
          3 120 552 84 vstem
          27 callsubr
          26 60 15 62 55 vvcurveto
          80 -29 68 -65 41 vhcurveto
          25 35 rlineto
          -38 callgsubr
          -15 -20 rlineto
          13 -37 -42 6 -52 hhcurveto
          -260 -7 -229 -251 -264 vvcurveto
          -107 45 -62 73 -28 vhcurveto
          -30 -42 -45 callsubr
          24 34 rlineto
          -5 25 29 -3 30 hhcurveto
          -24 callgsubr
          hvcurveto
          39 callsubr
          -216 -193 -274 -217 -26 -21 5 8 -18 vhcurveto
          433 604 18 -17 13 -25 6 -33 rlinecurve
          -507 -502 rmoveto
          -29 31 -12 47 52 vvcurveto
          219 199 264 214 21 21 -4 -7 18 vhcurveto
          endchar
        </CharString>
        <CharString name="Otilde">
          -1 callsubr
          146 49 51 callgsubr
          298 328 -74 -59 callgsubr
          51 332 rmoveto
          1 2 1 3 2 vvcurveto
          5 -4 3 -5 vhcurveto
          -16 -4 -41 -41 -47 -44 37 -48 hhcurveto
          -39 -38 -61 -7 -5 6 -4 5 hvcurveto
          10 10 30 43 46 38 -36 46 hhcurveto
          37 26 43 29 17 hvcurveto
          endchar
        </CharString>
        <CharString name="P">
          10 -9 45 266 19 347 30 hstem
          560 104 vstem
          664 24 callgsubr
          -206 hlineto
          -107 callsubr
          7 10 vvcurveto
          60 49 137 34 86 vhcurveto
          -2 14 16 -1 16 hhcurveto
          171 195 63 183 16 hvcurveto
          -152 -128 rmoveto
          -69 -61 -108 43 callsubr
          33 76 69 150 58 72 rlinecurve
          97 -6 41 -44 -73 vvcurveto
          -43 -18 -48 -31 -34 vhcurveto
          endchar
        </CharString>
        <CharString name="Q">
          283 -281 92 156 43 652 45 hstem
          83 120 508 8 36 84 vstem
          798 303 rmoveto
          -14 callgsubr
          -75 99 -179 -61 callgsubr
          57 54 10 19 50 vhcurveto
          -95 16 -20 -182 137 hhcurveto
          48 46 32 45 10 -3 10 -5 10 hvcurveto
          -10 -10 -14 -6 -11 hhcurveto
          -80 1 159 63 -29 hvcurveto
          101 60 79 97 50 113 rrcurveto
          39 callsubr
          -143 -86 -177 -132 -99 vhcurveto
          28 -25 -33 19 -40 hhcurveto
          -21 -39 -6 -20 -4 3 -2 6 hvcurveto
          6 11 4 10 hhcurveto
          24 27 -18 -37 14 hvcurveto
          -24 -49 -49 -10 -38 hhcurveto
          -103 -39 76 93 217 197 266 216 65 55 -30 -81 15 hvcurveto
          endchar
        </CharString>
        <CharString name="R">
          130 10 callgsubr
          hstem
          41 111 387 -102 callgsubr
          endchar
        </CharString>
        <CharString name="Racute">
          39 callgsubr
          27 47 callgsubr
          41 111 273 241 -127 -102 callgsubr
          -19 248 -103 callgsubr
        </CharString>
        <CharString name="Rcaron">
          39 callgsubr
          81 -20 hstem
          41 111 166 365 -144 -102 callgsubr
          -276 320 -92 callsubr
        </CharString>
        <CharString name="Rcommaaccent">
          39 callgsubr
          hstem
          41 111 387 -102 callgsubr
          endchar
        </CharString>
        <CharString name="S">
          43 -32 98 604 40 hstem
          36 74 106 80 248 72 vstem
          524 -70 callgsubr
          endchar
        </CharString>
        <CharString name="Scaron">
          64 -32 98 604 40 98 -20 38 -20 hstem
          -4 74 106 80 45 365 -354 365 -173 72 vstem
          484 -70 callgsubr
          -121 430 -92 callsubr
        </CharString>
        <CharString name="T">
          -80 21 -21 663 30 -30 35 hstem
          63 111 vstem
          373 638 rmoveto
          -64 -119 -120 -265 -27 -128 rrcurveto
          -4 -18 -5 -28 -26 vvcurveto
          -39 11 -37 44 106 72 136 18 7 -2 3 -4 -3 -3 -2 -4 -3 vhcurveto
          -47 -35 -27 -18 -18 hhcurveto
          -21 -10 21 25 79 79 191 52 110 hvcurveto
          43 20 44 93 9 20 64 -6 57 hhcurveto
          92 61 28 44 5 -1 4 -2 5 hvcurveto
          -22 -21 -51 -6 -58 -152 -71 21 -147 hhcurveto
          -123 -132 -32 -130 -17 9 -53 20 5 5 4 6 hvcurveto
          13 -8 15 14 vvcurveto
          93 125 21 101 vhcurveto
          38 36 -2 29 5 4 0 4 hhcurveto
          endchar
        </CharString>
        <CharString name="Thorn">
          19 156 16 340 37 -30 30 hstemhm
          492 105 hintmask 11010000
          494 723 rmoveto
          -53 -7 -67 28 -48 -67 -23 -32 -27 -44 -28 -52 rrcurveto
          -42 hlineto
          -61 callsubr
          -86 -82 23 callgsubr
          -43 -91 callsubr
          4 -81 callgsubr
          20 62 145 47 104 3 -20 -39 rcurveline
          -36 -54 -19 -57 -25 -56 -85 -191 -55 -144 -29 -120 rrcurveto
          129 hlineto
          -2 5 -2 7 9 vvcurveto
          60 49 138 34 86 vhcurveto
          -2 15 15 -1 16 hhcurveto
          222 162 112 143 76 -56 65 -130 hvcurveto
          -47 hlineto
          53 87 48 68 29 19 rrcurveto
          -50 -452 rmoveto
          -69 -61 -109 43 callsubr
          rlineto
          hintmask 10110000
          33 76 71 149 57 73 rrcurveto
          97 -6 40 -46 -71 vvcurveto
          -44 -17 -47 -31 -34 vhcurveto
          endchar
        </CharString>
        <CharString name="U">
          230 -9 44 -42 63 642 -20 hstemhm
          79 95 292 112 hintmask 10111000
          308 -21 callsubr
          hintmask 01111000
          -105 callgsubr
          endchar
        </CharString>
        <CharString name="Uacute">
          3 callsubr
          64 -85 callgsubr
          457 197 -103 callgsubr
        </CharString>
        <CharString name="Ucircumflex">
          3 callsubr
          251 67 19 callsubr
          263 47 -84 callgsubr
          468 124 -106 callsubr
        </CharString>
        <CharString name="Udieresis">
          3 callsubr
          79 96 19 callsubr
          127 91 -84 callgsubr
          463 174 -104 callsubr
        </CharString>
        <CharString name="Ugrave">
          3 callsubr
          62 -85 callgsubr
          217 200 -96 callgsubr
        </CharString>
        <CharString name="V">
          -30 21 -21 619 92 -13 -20 hstemhm
          195 99 hintmask 10110000
          580 698 rmoveto
          -45 -103 -184 -327 -112 -157 rrcurveto
          4 46 8 129 123 vvcurveto
          hintmask 11010000
          155 -8 147 -73 -43 -72 -72 -48 -15 vhcurveto
          -54 callgsubr
          -3 2 -3 2 vhcurveto
          0 -34 callsubr
          1 vhcurveto
          25 16 15 10 12 hhcurveto
          53 7 -157 -108 -50 -2 -50 -2 -46 hvcurveto
          -4 -74 2 -89 -24 -46 rrcurveto
          64 hlineto
          45 26 54 43 28 hvcurveto
          hintmask 10110000
          117 181 222 339 50 81 rrcurveto
          endchar
        </CharString>
        <CharString name="W">
          520 -5 67 594 42 -24 34 hstemhm
          10 31 43 103 339 95 384 98 hintmask 10111110
          1103 607 rmoveto
          74 -4 -56 28 -50 hhcurveto
          -39 -35 -17 -24 -3 hvcurveto
          5 14 11 2 11 hhcurveto
          40 13 -34 -45 -70 -32 -99 -19 -51 hvcurveto
          -146 -53 -89 -167 -110 hhcurveto
          -54 3 -27 53 86 vvcurveto
          165 88 185 59 80 vhcurveto
          5 -9 5 -19 -59 -61 -55 -46 -24 vhcurveto
          -40 -76 -29 -100 -54 -81 rrcurveto
          -117 -79 -89 -107 -54 hhcurveto
          -48 -15 37 50 70 30 93 20 48 hvcurveto
          hintmask 11011110
          58 145 84 117 55 33 rrcurveto
          14 9 22 24 7 vvcurveto
          -9 callsubr
          -2 vhcurveto
          -158 hlineto
          -14 -16 0 -17 hhcurveto
          -96 -158 -15 -117 -30 callsubr
          48 72 16 vhcurveto
          52 12 94 4 76 15 -16 -6 -15 -8 -14 -13 rrcurveto
          -136 -121 -106 -235 -130 vvcurveto
          -111 53 -36 55 50 69 18 90 78 vhcurveto
          62 72 53 95 40 79 rrcurveto
          -11 -55 -7 -54 -49 vvcurveto
          -115 34 -71 90 96 93 69 59 54 vhcurveto
          114 126 97 192 139 5 0 6 5 vvcurveto
          endchar
        </CharString>
        <CharString name="X">
          80 0 18 613 69 hstem
          0 789 vstem
          790 695 rmoveto
          -15 -18 1 -19 hhcurveto
          -25 -25 -3 -14 -13 hvcurveto
          -78 -89 -80 -86 -83 -85 -13 54 -16 68 -12 55 rrcurveto
          59 -13 -9 42 -52 hhcurveto
          -64 -73 -51 -35 -37 hvcurveto
          -2 -2 -1 -2 -3 vvcurveto
          -6 4 -7 3 37 callgsubr
          vhcurveto
          31 31 30 8 17 hhcurveto
          29 12 -23 -20 5 hvcurveto
          67 -261 -111 -112 -115 -108 -117 -107 rlinecurve
          108 hlineto
          77 94 83 94 87 92 75 -280 rcurveline
          141 hlineto
          -11 13 -49 112 -65 248 112 113 116 109 116 100 rrcurveto
          endchar
        </CharString>
        <CharString name="Y">
          204 31 callsubr
          hstem
          52 callgsubr
          -69 callsubr
          endchar
        </CharString>
        <CharString name="Yacute">
          204 31 callsubr
          47 47 callgsubr
          52 callgsubr
          69 241 -69 callsubr
          -165 112 -103 callgsubr
        </CharString>
        <CharString name="Ydieresis">
          104 31 callsubr
          74 96 hstemhm
          52 callgsubr
          165 91 hintmask 11011100
          552 799 -105 callsubr
          hintmask 10111100
          303 -101 rmoveto
          -15 -20 1 -21 hhcurveto
          -34 -35 -3 -18 -14 hvcurveto
          -68 -90 -100 -147 -75 -104 -26 100 -27 111 -35 106 rrcurveto
          44 -14 -4 0 -26 hhcurveto
          -107 hlineto
          -12 -11 -8 -5 -1 27 -13 8 -12 hvcurveto
          28 -39 50 -141 14 -45 rrcurveto
          18 -58 18 -59 -43 vvcurveto
          -74 -59 -126 -17 -74 vhcurveto
          122 hlineto
          -1 3 -1 4 4 vvcurveto
          15 7 25 6 29 vhcurveto
          65 302 231 226 128 90 rrcurveto
          endchar
        </CharString>
        <CharString name="Z">
          203 -12 83 17 40 460 112 -99 99 hstemhm
          613 66 hintmask 11011000
          800 698 rmoveto
          3 -7 -10 1 -12 -62 -12 -37 -71 hhcurveto
          -45 -63 9 15 -66 hvcurveto
          6 -27 -35 6 -34 hhcurveto
          -31 -30 -5 -13 -22 hvcurveto
          -33 -20 -59 -74 -59 vvcurveto
          -8 0 -12 7 5 5 3 3 vhcurveto
          48 4 51 37 37 hhcurveto
          hintmask 11101000
          41 85 -13 54 hhcurveto
          48 82 18 22 48 hvcurveto
          -90 -90 -79 -75 -102 -97 -107 -102 -131 -119 -108 -67 rrcurveto
          -21 -13 -10 -19 -17 vvcurveto
          -22 15 -18 21 vhcurveto
          52 39 99 49 55 128 -101 140 hhcurveto
          116 65 69 58 38 -34 30 -37 1 hvcurveto
          -3 -6 -7 -3 0 0 0 0 hvcurveto
          10 -7 4 -10 -12 vvcurveto
          -56 -57 -16 -68 -81 -98 23 8 -35 vhcurveto
          -34 7 -30 9 -18 9 192 189 199 193 216 188 rrcurveto
          endchar
        </CharString>
        <CharString name="Zcaron">
          116 -12 83 17 40 460 76 -76 112 82 -20 hstemhm
          618 66 hintmask 11101100
          188 55 rmoveto
          -26 3 -13 2 9 vvcurveto
          7 6 9 13 16 vhcurveto
          154 187 155 189 164 177 rrcurveto
          15 17 7 11 7 vvcurveto
          hintmask 11011100
          9 -12 2 -15 vhcurveto
          1 -14 -19 -3 -14 hhcurveto
          -392 hlineto
          -23 -42 -41 -62 -16 hvcurveto
          -3 2 -1 2 2 3 1 3 2 vhcurveto
          60 39 107 -7 87 hhcurveto
          48 70 5 -15 -6 -5 -8 -10 -13 hvcurveto
          -138 -172 -147 -167 -146 -166 rrcurveto
          -24 -27 -14 -49 -11 vvcurveto
          -13 8 -6 17 vhcurveto
          476 hlineto
          24 41 41 62 16 hvcurveto
          2 -1 2 -3 -2 -3 -2 -2 -1 vhcurveto
          -56 -36 -98 2 -70 hhcurveto
          -57 -76 1 5 -41 hvcurveto
          168 830 -92 callsubr
        </CharString>
        <CharString name="a">
          -31 callsubr
          0 callsubr
          hintmask 11011100
          -106 callgsubr
          hintmask 11101100
          -55 callgsubr
          endchar
        </CharString>
        <CharString name="aacute">
          -31 callsubr
          123 138 -94 callgsubr
          107 254 -103 callgsubr
        </CharString>
        <CharString name="acircumflex">
          -31 callsubr
          306 67 0 callsubr
          170 47 hintmask 11011111
          -106 callgsubr
          hintmask 11101111
          -55 callgsubr
          114 177 -106 callsubr
        </CharString>
        <CharString name="acute">
          51 525 47 callgsubr
          279 241 vstem
          480 610 -103 callgsubr
        </CharString>
        <CharString name="adieresis">
          -31 callsubr
          131 96 hstemhm
          27 97 106 91 43 7 73 91 -77 callgsubr
          148 224 -104 callsubr
        </CharString>
        <CharString name="ae">
          138 -10 40 -37 84 116 28 115 15 15 37 -36 30 3 -20 0 callsubr
          135 91 205 53 hintmask 0111010111100000
          691 -82 callsubr
          -22 35 48 hvcurveto
          1 19 1 22 8 21 10 28 rcurveline
          -8 15 25 -5 28 hhcurveto
          69 103 42 109 24 -19 32 -50 -29 -31 -10 -15 -29 hvcurveto
          7 11 8 11 5 4 rrcurveto
          -17 callsubr
          hhcurveto
          hintmask 0111001111100000
          -29 callgsubr
          -32 -33 -33 -24 -12 -76 callgsubr
          72 66 80 115 77 hvcurveto
          -10 -25 -6 -25 -24 vvcurveto
          hintmask 1011010111100000
          -91 68 -37 67 132 74 117 96 56 vhcurveto
          -329 131 -78 callsubr
          hintmask 0111100111100000
          -55 callgsubr
          228 5 -77 callsubr
          endchar
        </CharString>
        <CharString name="agrave">
          -31 callsubr
          117 138 -94 callgsubr
          -111 253 -96 callgsubr
        </CharString>
        <CharString name="ampersand">
          309 -32 88 190 13 87 31 115 -20 152 58 hstem
          12 124 76 74 94 17 158 52 vstem
          745 427 rmoveto
          -10 -23 -54 -23 -50 -15 -151 -46 rcurveline
          -57 -18 -42 -36 -38 vvcurveto
          -13 5 -14 11 -13 vhcurveto
          16 1 18 42 25 hhcurveto
          38 17 -20 -38 -79 -81 -101 -154 -91 -46 60 69 84 89 125 130 hvcurveto
          16 14 -7 14 hhcurveto
          13 18 16 11 8 -8 3 -19 hvcurveto
          -8 -7 0 -5 hhcurveto
          -36 2 -48 24 62 vvcurveto
          71 80 88 104 49 35 -18 -41 -26 -14 -29 -31 -17 vhcurveto
          -4 5 7 -1 7 hhcurveto
          40 43 37 50 57 -59 43 -74 -113 -154 -65 -130 -46 29 -42 48 -24 hvcurveto
          -138 -6 -138 -104 -141 vvcurveto
          -117 136 -32 93 119 205 77 146 39 -25 36 -49 -11 -12 -3 -4 -13 vhcurveto
          2 1 rlineto
          118 59 172 -37 126 vvcurveto
          8 -1 7 -2 4 vhcurveto
          endchar
        </CharString>
        <CharString name="aring">
          -31 callsubr
          103 184 hstemhm
          27 97 165 53 22 7 91 31 -77 callgsubr
          126 239 -39 callgsubr
        </CharString>
        <CharString name="asciicircum">
          44 callsubr
          527 491 rmoveto
          -48 60 -34 47 -30 64 rrcurveto
          11 -6 -4 7 -6 hhcurveto
          -5 -6 -5 -10 -9 hvcurveto
          -66 -71 -73 -68 -77 -63 rrcurveto
          21 callgsubr
          0 vvcurveto
          -2 2 0 4 27 128 111 55 55 vhcurveto
          -35 16 63 -129 31 hhcurveto
          14 25 21 8 -34 callsubr
          0 hvcurveto
          endchar
        </CharString>
        <CharString name="asciitilde">
          34 609 49 -6 49 hstemhm
          226 383 hintmask 01100000
          609 688 rmoveto
          1 1 0 2 1 vvcurveto
          5 -4 4 -4 vhcurveto
          hintmask 10100000
          -8 -27 -43 -53 hhcurveto
          hintmask 01100000
          -65 -49 43 -68 hhcurveto
          -49 -57 -59 -15 -4 5 -4 4 3 2 1 3 2 hvcurveto
          18 12 20 11 43 hhcurveto
          hintmask 10100000
          64 52 -43 65 hhcurveto
          51 36 45 34 24 hvcurveto
          endchar
        </CharString>
        <CharString name="asterisk">
          172 511 -20 hstem
          8 614 vstem
          598 586 rmoveto
          -253 -145 -4 2 102 243 rlineto
          -90 hlineto
          -44 -243 -6 -2 -166 144 -69 -74 210 -98 -1 -4 -269 -96 24 -74 253 143 4 -3 -102 -240 rlineto
          91 hlineto
          43 240 7 3 165 -143 69 75 -210 96 1 3 269 99 rlineto
          endchar
        </CharString>
        <CharString name="at">
          437 -17 34 79 24 31 70 286 38 hstem
          22 80 112 88 136 79 216 70 vstem
          812 190 rmoveto
          43 67 20 68 64 vvcurveto
          162 -130 131 -215 -275 -167 -224 -213 -221 159 -89 196 129 270 49 155 10 -2 7 -3 11 callsubr
          -4 -2 vhcurveto
          -89 -54 -168 -93 -149 hhcurveto
          -146 -148 79 215 197 152 203 215 183 89 -136 -147 -117 -70 -155 -101 -27 -21 19 46 60 71 209 78 61 hvcurveto
          -56 hlineto
          -47 -12 -18 -34 -17 hvcurveto
          -3 -6 rlineto
          55 -19 -21 17 -44 hhcurveto
          -138 -96 -166 -136 -58 33 -34 37 55 57 62 87 55 hvcurveto
          -8 -30 -4 -26 -23 vvcurveto
          -79 47 -31 59 72 87 46 62 40 vhcurveto
          -238 203 rmoveto
          -60 -31 -89 -142 -48 hhcurveto
          -19 -16 22 42 85 59 138 105 29 28 -14 -28 4 hvcurveto
          endchar
        </CharString>
        <CharString name="atilde">
          -31 callsubr
          183 49 -94 callgsubr
          151 259 rmoveto
          1 2 1 3 2 vvcurveto
          5 -4 3 -5 vhcurveto
          -16 -4 -41 -41 -47 -44 37 -48 hhcurveto
          -39 -38 -61 -7 -5 6 -4 5 hvcurveto
          10 10 30 43 46 38 -36 46 hhcurveto
          37 26 43 29 17 hvcurveto
          endchar
        </CharString>
        <CharString name="b">
          -37 -9 35 -2 47 55 34 159 84 0 -20 270 -20 86 25 hstemhm
          38 79 194 98 hintmask 0110111110000000
          516 202 -60 callsubr
          -5 -47 11 callgsubr
          -30 -24 -28 -37 -30 hhcurveto
          -19 -13 15 22 -1 hvcurveto
          48 59 34 74 71 vvcurveto
          68 -30 24 -38 -72 -73 -87 -104 -59 vhcurveto
          46 176 108 227 52 38 -19 -3 -47 4 -23 -6 -61 -16 -123 -336 -35 -148 rrcurveto
          -8 -33 -4 -27 -22 vvcurveto
          -61 30 -16 61 79 51 31 51 51 vhcurveto
          -26 9 24 -13 23 hhcurveto
          72 58 114 55 34 hvcurveto
          hintmask 1011011110000000
          -218 117 32 callgsubr
          -69 -98 -195 -77 -22 -7 19 23 76 85 119 49 37 vhcurveto
          16 12 15 9 14 -1 rrcurveto
          3 4 46 callsubr
        </CharString>
        <CharString name="backslash">
          -25 702 -20 hstem
          86 308 vstem
          170 699 rmoveto
          2 -1 -10 1 -13 hhcurveto
          -25 -36 -3 -5 1 hvcurveto
          254 -752 rlineto
          -3 1 10 0 13 hhcurveto
          25 36 3 5 -1 hvcurveto
          endchar
        </CharString>
        <CharString name="bar">
          -23 702 -20 hstem
          182 151 vstem
          279 697 rmoveto
          -107 -750 rlineto
          70 hlineto
          106 750 rlineto
          endchar
        </CharString>
        <CharString name="braceleft">
          -23 -81 11 390 15 357 19 hstem
          64 85 -30 85 vstem
          500 712 rmoveto
          -9 -9 0 -8 hhcurveto
          -94 -38 -19 -18 -35 hvcurveto
          -113 -56 17 -81 -28 -75 -36 -96 -49 -1 -79 -6 -10 -31 rcurveline
          33 70 -11 -70 hvcurveto
          -78 -57 -88 -76 vvcurveto
          -86 92 -1 94 vhcurveto
          7 38 2 7 hhcurveto
          12 29 rlineto
          -11 -14 -1 -14 hhcurveto
          -51 -55 13 59 hvcurveto
          74 46 69 78 vvcurveto
          56 -66 41 -58 1 vhcurveto
          80 3 90 55 27 69 rrcurveto
          97 37 -14 117 189 hhcurveto
          endchar
        </CharString>
        <CharString name="braceright">
          92 -81 18 358 15 390 11 hstem
          335 85 -30 85 vstem
          500 302 rmoveto
          -33 -70 11 70 hvcurveto
          78 57 88 76 vvcurveto
          86 -92 1 -94 vhcurveto
          -7 -38 -2 -7 hhcurveto
          -12 -29 rlineto
          11 13 1 15 hhcurveto
          51 55 -13 -59 hvcurveto
          -74 -46 -69 -78 vvcurveto
          -56 65 -41 59 -1 vhcurveto
          -82 -3 -89 -56 -26 -68 rrcurveto
          -97 -37 13 -117 -187 hhcurveto
          -10 -31 rlineto
          9 9 -1 8 hhcurveto
          94 37 20 18 36 hvcurveto
          113 56 -17 80 28 76 36 96 49 1 79 6 rrcurveto
          endchar
        </CharString>
        <CharString name="bracketleft">
          20 callsubr
          -19 -57 50 148 -298 -880 rrcurveto
          243 hlineto
          16 48 rlineto
          -153 hlineto
          235 693 rlineto
          153 hlineto
          16 48 rlineto
          endchar
        </CharString>
        <CharString name="bracketright">
          20 callsubr
          -16 -48 rlineto
          153 hlineto
          -235 -693 rlineto
          -153 hlineto
          -16 -48 rlineto
          243 hlineto
          267 789 rlineto
          endchar
        </CharString>
        <CharString name="breve">
          127 597 40 hstem
          263 329 -328 64 vstem
          564 698 rmoveto
          0 0 0 0 vhcurveto
          2 -12 2 -11 -10 -8 -1 -3 -1 vhcurveto
          -43 -18 -39 -20 -39 hhcurveto
          -36 -40 21 43 2 -15 2 -15 -24 -6 -2 -8 -53 63 -38 58 74 51 37 59 28 hvcurveto
          endchar
        </CharString>
        <CharString name="brokenbar">
          -23 699 -20 hstem
          249 152 vstem
          401 691 -2 callsubr
          -15 -115 -2 callsubr
          endchar
        </CharString>
        <CharString name="bullet">
          31 38 398 hstem
          72 419 vstem
          128 358 rmoveto
          -31 -39 -16 -46 -44 vvcurveto
          -96 76 -84 101 105 99 94 112 95 -75 85 -102 -58 -58 -27 -50 -41 vhcurveto
          endchar
        </CharString>
        <CharString name="c">
          -122 -10 40 208 50 79 30 40 callsubr
          vstem
          -57 callsubr
          endchar
        </CharString>
        <CharString name="caron">
          51 503 -20 hstem
          194 365 vstem
          245 606 -92 callsubr
        </CharString>
        <CharString name="ccedilla">
          -122 -290 32 154 25 69 40 208 50 79 30 hstemhm
          -39 212 -140 91 205 53 hintmask 11111011
          -57 callsubr
          -246 -210 rmoveto
          hintmask 11111101
          -75 callsubr
        </CharString>
        <CharString name="cedilla">
          194 -290 32 154 25 hstem
          11 212 vstem
          234 -9 rmoveto
          -75 callsubr
        </CharString>
        <CharString name="cent">
          1 89 56 417 35 105 -20 hstem
          48 89 272 56 vstem
          458 476 rmoveto
          5 15 2 14 12 vvcurveto
          43 -29 27 -44 8 vhcurveto
          38 99 rlineto
          22 callgsubr
          -39 -101 rlineto
          -148 -12 -150 -191 -161 vvcurveto
          -69 30 -56 72 -15 vhcurveto
          1 0 -1 1 hhcurveto
          -56 -146 rlineto
          -54 callgsubr
          -4 17 -3 12 7 6 0 3 1 vhcurveto
          56 147 rlineto
          72 99 29 79 58 hvcurveto
          10 14 5 17 11 vvcurveto
          7 -2 4 -4 -7 -68 -74 -14 -44 vhcurveto
          -13 -41 -31 -4 -25 hhcurveto
          160 415 rlineto
          18 -3 13 -10 -17 -25 -25 -16 -20 vvcurveto
          -19 15 -14 17 15 17 11 29 10 vhcurveto
          -281 -321 rmoveto
          -29 15 -11 31 38 vvcurveto
          122 87 158 107 37 vhcurveto
          endchar
        </CharString>
        <CharString name="circumflex">
          44 callsubr
          487 505 -106 callsubr
        </CharString>
        <CharString name="colon">
          -196 -11 114 199 38 callgsubr
          70 108 -18 43 callgsubr
          -6 callgsubr
          104 305 -78 callgsubr
        </CharString>
        <CharString name="comma">
          -209 -132 229 hstem
          69 183 vstem
          246 64 -79 callgsubr
        </CharString>
        <CharString name="copyright">
          194 63 41 325 46 113 28 hstem
          105 98 250 8 98 49 -23 14 -64 callsubr
          -126 -100 rmoveto
          4 5 1 6 6 vvcurveto
          11 -5 9 -7 -2 -3 -1 -4 -3 vhcurveto
          -62 -48 -68 -49 -67 hhcurveto
          -59 -31 51 68 118 97 150 80 26 12 -18 -21 hvcurveto
          -53 -48 9 -19 vvcurveto
          -29 21 -14 23 43 25 44 42 48 -37 42 -67 -153 -108 -159 -134 -88 46 -77 100 100 77 55 64 51 vhcurveto
          endchar
        </CharString>
        <CharString name="currency">
          353 161 50 272 49 hstem
          565 489 rmoveto
          27 -32 -42 16 -50 hhcurveto
          -44 -43 -13 -22 -36 hvcurveto
          -100 96 rlineto
          -16 callsubr
          0 -6 -18 -56 -27 -6 1 -4 2 -2 vhcurveto
          59 -57 rlineto
          -26 -34 -16 -40 -45 vvcurveto
          -25 6 -25 12 -21 vhcurveto
          -97 -68 rlineto
          -10 -7 -7 -47 -26 vvcurveto
          -9 1 -6 2 vhcurveto
          0 1 0 0 vhcurveto
          155 110 rlineto
          -23 31 40 -14 46 hhcurveto
          43 41 12 21 36 hvcurveto
          111 -106 rlineto
          0 -34 callsubr
          5 17 56 26 7 -1 4 -2 2 vhcurveto
          -68 65 rlineto
          27 33 18 43 43 vvcurveto
          24 -5 23 -9 20 vhcurveto
          90 64 rlineto
          11 8 7 46 25 vvcurveto
          10 -1 6 -2 vhcurveto
          -16 callsubr
          0 vhcurveto
          -162 -246 rmoveto
          -75 -9 -66 -61 -72 hhcurveto
          -68 -49 52 67 83 69 70 79 67 50 -52 -67 -6 0 -5 -1 -6 hvcurveto
          endchar
        </CharString>
        <CharString name="d">
          -4 17 -21 370 37 hstemhm
          27 97 165 90 -15 7 hintmask 11101000
          601 654 rmoveto
          -18 -3 -48 4 -24 -6 -42 -11 6 -28 -100 -220 -4 -8 -4 -11 -6 -11 rrcurveto
          34 -19 -42 10 -29 -50 callsubr
          -68 30 -24 37 86 86 123 102 51 hvcurveto
          hintmask 11110000
          -24 -75 -5 -32 -42 vvcurveto
          -45 13 -34 40 47 59 61 37 28 vhcurveto
          37 50 45 64 1 32 rrcurveto
          11 -3 8 -4 -4 -48 -88 -31 -24 vhcurveto
          -15 -11 -44 -46 -24 hhcurveto
          -11 -7 9 23 114 154 381 68 50 hvcurveto
          -245 -306 rmoveto
          -166 -78 -70 -102 -59 hhcurveto
          30 callgsubr
          21 88 96 167 95 16 15 -5 -13 9 hvcurveto
          endchar
        </CharString>
        <CharString name="dagger">
          -97 277 65 360 -20 hstemhm
          -38 366 -258 151 hintmask 11100000
          219 515 rmoveto
          25 179 rlineto
          5 1 -30 3 -20 hhcurveto
          -10 -8 -1 -2 hvcurveto
          12 callsubr
          hintmask 11010000
          -71 -503 rlineto
          -5 -1 29 -3 21 hhcurveto
          10 9 0 3 hvcurveto
          72 508 rlineto
          111 -28 callsubr
        </CharString>
        <CharString name="daggerdbl">
          -66 180 58 129 58 277 -20 hstem
          -64 417 -283 151 vstem
          245 515 rmoveto
          26 179 rlineto
          4 -28 4 -20 -10 -8 1 callgsubr
          12 callsubr
          -14 -98 rlineto
          -111 hlineto
          -13 callsubr
          148 hlineto
          -48 -340 rlineto
          -4 -1 22 -4 13 1 42 callgsubr
          4 3 -1 4 hhcurveto
          10 8 2 2 1 hvcurveto
          48 345 rlineto
          103 hlineto
          14 33 54 9 -37 callsubr
          -140 hlineto
          14 98 rlineto
          112 -28 callsubr
        </CharString>
        <CharString name="degree">
          353 709 -20 hstem
          270 54 165 43 vstem
          526 588 rmoveto
          4 13 2 13 12 vvcurveto
          45 -28 38 -66 -103 -66 -81 -71 -46 29 -38 64 85 59 55 60 20 vhcurveto
          -78 90 rmoveto
          29 -5 12 -21 -26 vvcurveto
          -52 -49 -73 -64 -37 -15 22 31 52 47 73 64 4 4 0 -1 5 vhcurveto
          endchar
        </CharString>
        <CharString name="dieresis">
          100 562 96 hstem
          273 34 callsubr
          vstem
          553 609 -104 callsubr
        </CharString>
        <CharString name="divide">
          257 -11 114 174 65 -40 38 callgsubr
          -81 366 -215 108 -18 43 callgsubr
          456 481 45 callgsubr
          5 -11 -35 -38 -22 -23 -14 28 -20 14 5 26 36 11 10 vhcurveto
          -255 -109 rmoveto
          -13 callsubr
          376 hlineto
          14 33 54 9 -37 callsubr
          -236 -195 45 callgsubr
          6 -12 -34 -39 -23 -23 -14 28 -20 14 7 24 37 10 11 vhcurveto
          endchar
        </CharString>
        <CharString name="dollar">
          -25 84 65 338 -20 95 38 102 -20 hstemhm
          46 55 223 83 -3 48 hintmask 11111100
          445 559 rmoveto
          -13 22 -25 12 -28 5 37 96 rcurveline
          22 callgsubr
          -38 -98 rlineto
          -117 -4 -55 -74 -54 vvcurveto
          -45 37 -44 37 -33 vhcurveto
          -74 -193 rlineto
          -42 14 -18 34 29 vvcurveto
          15 5 13 17 12 vhcurveto
          1 -4 -4 0 -3 hhcurveto
          -44 -24 -49 -39 -53 41 -31 51 -11 hvcurveto
          -55 -142 rlineto
          -5 16 -3 14 7 6 0 3 1 vhcurveto
          55 142 rlineto
          4 hlineto
          132 91 95 83 56 -40 40 -45 31 hvcurveto
          -19 13 56 147 rlineto
          23 -13 22 -23 -26 vvcurveto
          2 2 0 2 hhcurveto
          hintmask 11111010
          28 13 22 23 9 -2 10 -5 8 hvcurveto
          -176 -128 rmoveto
          -18 17 -13 20 28 vvcurveto
          39 34 27 39 vhcurveto
          3 2 0 3 hhcurveto
          -31 -256 rmoveto
          25 -18 12 -23 -22 vvcurveto
          -45 -46 -44 -73 -4 vhcurveto
          65 168 rlineto
          endchar
        </CharString>
        <CharString name="dotaccent">
          127 601 38 callgsubr
          374 43 callgsubr
          484 665 -78 callgsubr
        </CharString>
        <CharString name="dotlessi">
          10 callsubr
          hstem
          25 93 93 126 vstem
          289 201 -80 callgsubr
          -93 callgsubr
          endchar
        </CharString>
        <CharString name="e">
          -11 callsubr
          40 callsubr
          vstem
          -101 callgsubr
          endchar
        </CharString>
        <CharString name="eacute">
          -11 callsubr
          89 47 callgsubr
          33 91 130 241 -166 53 vstem
          -101 callgsubr
          125 232 -103 callgsubr
        </CharString>
        <CharString name="ecircumflex">
          -11 callsubr
          293 67 40 callsubr
          133 47 vstem
          -101 callgsubr
          120 176 -106 callsubr
        </CharString>
        <CharString name="edieresis">
          -11 callsubr
          113 96 hstem
          33 91 78 91 36 53 34 91 vstem
          -101 callgsubr
          152 218 -104 callsubr
        </CharString>
        <CharString name="egrave">
          -11 callsubr
          88 35 callgsubr
          33 91 31 240 -66 53 hintmask 11111100
          -101 callgsubr
          -145 236 rmoveto
          -30 71 97 -54 6 hhcurveto
          hintmask 11111010
          -95 callgsubr
        </CharString>
        <CharString name="eight">
          107 -13 66 729 57 hstem
          5 128 377 120 vstem
          440 394 rmoveto
          100 37 61 62 83 vvcurveto
          86 -75 58 -120 -164 -93 -89 -112 -54 25 -37 48 -32 vhcurveto
          -128 -42 -90 -90 -103 vvcurveto
          -100 94 -72 125 164 153 114 136 61 -33 56 -67 38 vhcurveto
          -43 290 rmoveto
          68 67 -50 -62 hvcurveto
          -3 -69 -67 -47 -76 -29 rrcurveto
          -78 18 -72 64 57 vvcurveto
          65 78 53 83 vhcurveto
          -113 -341 rmoveto
          84 -22 80 -29 -84 vvcurveto
          -120 -111 -53 -89 -90 -55 52 66 89 83 62 98 39 vhcurveto
          endchar
        </CharString>
        <CharString name="ellipsis">
          168 -11 38 callgsubr
          42 108 107 108 107 108 cntrmask 01110000
          -6 callgsubr
          386 hmoveto
          -95 callsubr
          -193 hmoveto
          -95 callsubr
          endchar
        </CharString>
        <CharString name="emdash">
          783 27 callgsubr
          1098 22 callsubr
          1051 -28 callsubr
        </CharString>
        <CharString name="endash">
          301 27 callgsubr
          616 22 callsubr
          569 -28 callsubr
        </CharString>
        <CharString name="equal">
          51 180 58 129 58 hstem
          96 417 vstem
          194 425 rmoveto
          4 callgsubr
          319 hlineto
          13 31 47 9 -37 callsubr
          -373 -187 rmoveto
          4 callgsubr
          319 hlineto
          13 31 47 9 -37 callsubr
          endchar
        </CharString>
        <CharString name="eth">
          2 -20 57 413 17 hstemhm
          -20 65 -16 96 -7 174 81 76 hintmask 11101100
          423 167 rmoveto
          17 42 9 47 47 vvcurveto
          112 -46 117 -77 79 vhcurveto
          43 27 rlineto
          7 5 5 29 17 vvcurveto
          7 -1 5 -2 vhcurveto
          0 0 0 0 vhcurveto
          -88 -58 rlineto
          39 -50 -60 23 -67 hhcurveto
          -97 -36 -45 -44 -36 25 -32 33 18 17 11 18 hvcurveto
          18 -30 14 30 vvcurveto
          24 17 11 24 49 49 -28 -45 43 vhcurveto
          -94 -60 rlineto
          -8 -5 -5 -30 -17 vvcurveto
          -7 1 -4 1 1 0 0 0 vhcurveto
          24 16 54 35 57 36 rrcurveto
          69 -89 48 -128 -103 vvcurveto
          -96 -53 -112 -94 vhcurveto
          hintmask 11010100
          -71 -30 52 78 109 62 145 89 30 hvcurveto
          hintmask 11101100
          11 4 5 4 4 vvcurveto
          3 -5 2 -9 vhcurveto
          hintmask 11010100
          -149 -100 -165 -139 -101 46 -83 102 115 88 85 102 43 hvcurveto
          endchar
        </CharString>
        <CharString name="exclam">
          -129 -11 38 callgsubr
          42 43 callgsubr
          401 651 rmoveto
          -1 -3 52 callsubr
          -15 -23 4 -20 hhcurveto
          -24 -21 -5 -19 -7 hvcurveto
          -52 -143 -77 -226 -17 -37 41 8 rcurveline
          10 29 132 269 84 121 rrcurveto
          -242 -602 -78 callgsubr
        </CharString>
        <CharString name="exclamdown">
          -105 432 38 callgsubr
          262 43 callgsubr
          374 490 -91 callgsubr
          -359 -599 rmoveto
          3 3 1 4 16 23 -4 20 hhcurveto
          24 21 5 19 7 hvcurveto
          52 143 77 226 17 37 -41 -8 rcurveline
          -10 -29 -132 -269 -84 -121 rrcurveto
          endchar
        </CharString>
        <CharString name="f">
          -141 -228 76 190 140 538 27 hstem
          -22 88 332 38 vstem
          57 177 rmoveto
          30 46 24 48 22 42 rrcurveto
          27 14 30 5 24 hhcurveto
          28 hlineto
          -49 -128 -56 -140 -61 -123 rrcurveto
          -56 -28 -59 -118 -71 hhcurveto
          -14 -11 13 18 hvcurveto
          23 21 20 12 vvcurveto
          17 -13 10 -15 -27 -19 -30 -33 -38 26 -40 70 182 125 350 160 55 vhcurveto
          29 84 115 2 61 7 18 45 rlinecurve
          -9 -14 -85 -5 -81 hhcurveto
          101 36 75 230 90 hhcurveto
          21 21 -13 -24 23 callsubr
          62 -55 15 -49 -174 -54 -210 -142 -54 vhcurveto
          -88 7 rlineto
          -3 -3 37 callsubr
          -17 -4 -6 -16 -5 hvcurveto
          -12 -36 -33 -74 -29 -50 rrcurveto
          -3 -6 -3 -14 -11 vvcurveto
          -8 2 -6 3 1 3 2 5 3 vhcurveto
          endchar
        </CharString>
        <CharString name="five">
          103 -26 43 273 22 156 62 182 96 hstem
          14 125 348 156 -24 101 vstem
          572 602 rmoveto
          12 27 10 30 22 vvcurveto
          27 -13 5 -35 vhcurveto
          -1 -25 -36 -4 -45 hhcurveto
          -190 hlineto
          -29 -62 -57 -122 -36 -87 rrcurveto
          -4 -10 -2 -7 -5 vvcurveto
          -8 5 -3 8 vhcurveto
          23 48 20 38 hhcurveto
          102 85 -71 -112 -123 -86 -96 -101 -71 -61 35 85 36 13 49 32 35 hvcurveto
          9 -13 -16 5 -16 hhcurveto
          -61 -37 -65 -58 -113 101 -48 106 147 185 78 194 112 -98 90 -152 -37 -20 -1 -19 -60 hvcurveto
          25 60 64 137 0 vvcurveto
          23 25 0 28 hhcurveto
          104 76 2 -69 4 hvcurveto
          -6 -2 -12 -4 -11 vhcurveto
          -5 -17 rlineto
          20 hlineto
          endchar
        </CharString>
        <CharString name="florin">
          -181 -255 30 657 35 203 30 hstem
          -328 66 664 92 vstem
          492 644 rmoveto
          45 -16 -30 11 -49 hhcurveto
          -132 -65 -127 -105 -43 hvcurveto
          -54 16 callgsubr
          50 hlineto
          -65 -161 -60 -192 -83 -167 rrcurveto
          -96 -48 -77 -36 -39 hhcurveto
          -22 -14 9 20 3 callgsubr
          100 169 59 221 69 147 rrcurveto
          144 15 callsubr
          -160 hlineto
          90 38 49 114 67 hhcurveto
          22 12 -16 -18 23 callsubr
          7 -1 8 -2 6 vhcurveto
          endchar
        </CharString>
        <CharString name="four">
          207 -16 27 217 97 -1 41 61 22 hstem
          8 75 224 141 vstem
          545 221 rmoveto
          95 15 44 63 49 vvcurveto
          25 -19 37 -28 -8 -7 -2 -6 -8 vhcurveto
          6 -8 3 -11 -10 vvcurveto
          -57 -65 -21 -72 -5 vhcurveto
          53 160 61 163 40 95 rrcurveto
          -124 hlineto
          -469 -402 rlineto
          -26 -13 -17 -23 -31 vvcurveto
          -28 13 -14 14 vhcurveto
          52 -60 90 112 hhcurveto
          68 80 -35 -19 85 hvcurveto
          -39 -106 -34 -89 -17 -38 rrcurveto
          119 hlineto
          10 40 23 80 32 100 rrcurveto
          -2 13 12 -1 12 hhcurveto
          16 15 2 2 15 hvcurveto
          -18 438 rmoveto
          0 -76 -201 -61 -166 vhcurveto
          -141 5 27 15 -151 8 rrcurveto
          endchar
        </CharString>
        <CharString name="g">
          -44 -235 28 224 49 callgsubr
          hstemhm
          -38 71 -3 97 240 7 hintmask 11111011
          472 400 rmoveto
          -66 -18 -16 -40 -19 hvcurveto
          47 -12 -65 callgsubr
          30 -23 38 79 80 103 119 63 hvcurveto
          -31 -86 -31 -95 -34 -83 rrcurveto
          -67 -28 -54 -94 -71 hhcurveto
          hintmask 11111101
          -23 -15 13 21 -20 callgsubr
          -36 -20 -40 -29 -47 45 -16 44 78 82 47 68 54 hvcurveto
          51 65 37 106 25 72 44 125 45 124 45 29 rrcurveto
          -147 -65 rmoveto
          -4 -30 -49 -60 -93 vhcurveto
          -53 -34 -53 -56 -37 hhcurveto
          hintmask 11111011
          30 callgsubr
          20 88 97 169 94 22 18 -9 -23 7 hvcurveto
          endchar
        </CharString>
        <CharString name="germandbls">
          64 -240 30 182 82 612 36 hstem
          190 55 45 73 73 115 vstem
          617 202 rmoveto
          8 13 3 17 12 -7 callsubr
          6 -3 -14 -65 -177 -42 -101 vhcurveto
          25 18 24 35 40 110 -142 8 91 122 230 -6 133 vvcurveto
          77 -84 34 -59 -210 -78 -220 -163 -59 vhcurveto
          -66 -180 -73 -281 -144 -73 rrcurveto
          -6 -13 -12 -3 -10 hhcurveto
          -21 -15 11 21 3 callgsubr
          68 116 55 158 49 132 rrcurveto
          122 45 85 240 124 hhcurveto
          39 38 -22 -54 hvcurveto
          -149 -245 17 -138 vvcurveto
          -88 88 -31 34 -70 vhcurveto
          6 -12 2 -11 -11 -3 callgsubr
          148 72 84 135 79 hvcurveto
          endchar
        </CharString>
        <CharString name="grave">
          51 525 47 callgsubr
          300 240 vstem
          330 615 -96 callgsubr
        </CharString>
        <CharString name="greater">
          -1 65 304 hstem
          39 213 vstem
          492 342 rmoveto
          -97 70 -69 69 -85 96 rrcurveto
          1 21 callgsubr
          hhcurveto
          -14 -45 -33 -20 -2 1 -2 1 -2 hvcurveto
          41 -71 124 -99 73 -51 -73 -45 -210 -141 -40 -50 rrcurveto
          -8 -8 -8 -20 -9 vvcurveto
          -3 1 -2 2 1 1 1 1 1 vhcurveto
          128 97 135 88 138 78 rrcurveto
          21 12 9 8 9 vvcurveto
          8 -9 9 -16 11 vhcurveto
          endchar
        </CharString>
        <CharString name="guillemotleft">
          191 25 551 hstem
          177 387 vstem
          656 521 rmoveto
          -101 -78 -109 -70 -111 8 callgsubr
          13 -2 callgsubr
          28 16 1 0 2 -1 1 vhcurveto
          -33 56 -99 79 -59 41 rrcurveto
          92 56 179 125 37 vvcurveto
          2 0 2 -2 vhcurveto
          0 36 callgsubr
          -1 vhcurveto
          -242 hmoveto
          -51 callsubr
        </CharString>
        <CharString name="guillemotright">
          213 44 callgsubr
          696 333 rmoveto
          -78 56 -55 55 -68 77 rrcurveto
          1 21 callgsubr
          hhcurveto
          -12 -34 -27 -16 -1 0 -2 2 callgsubr
          33 -57 99 -79 58 -41 rrcurveto
          -90 -55 -181 -124 -39 -4 callgsubr
          110 62 rrcurveto
          17 10 8 7 6 vvcurveto
          7 -8 6 -12 9 vhcurveto
          -242 hmoveto
          -38 callsubr
          111 62 rrcurveto
          17 10 7 7 6 vvcurveto
          7 -7 6 -13 9 vhcurveto
          endchar
        </CharString>
        <CharString name="guilsinglleft">
          -48 48 callsubr
          414 521 rmoveto
          -51 callsubr
        </CharString>
        <CharString name="guilsinglright">
          -37 44 callgsubr
          454 333 rmoveto
          -38 callsubr
          110 62 rrcurveto
          17 10 8 7 6 vvcurveto
          7 -8 6 -12 9 vhcurveto
          endchar
        </CharString>
        <CharString name="h">
          -42 33 callgsubr
          358 50 311 25 hstemhm
          244 98 59 36 hintmask 10111100
          -54 callsubr
          hintmask 01111100
          -64 callgsubr
          endchar
        </CharString>
        <CharString name="hbar">
          -42 33 callgsubr
          358 50 128 52 131 25 hstemhm
          244 98 59 36 hintmask 10111110
          -54 callsubr
          hintmask 01111110
          -64 callgsubr
          -272 -136 rmoveto
          -16 -37 -33 -6 -1 -34 callsubr
          hvcurveto
          369 hlineto
          15 39 32 7 0 -1 2 callgsubr
          endchar
        </CharString>
        <CharString name="hungarumlaut">
          127 537 186 hstem
          306 225 vstem
          531 711 rmoveto
          1 -17 callgsubr
          6 -15 4 -16 -15 -15 -3 -8 -2 vhcurveto
          -16 -60 -23 -96 -7 -16 rrcurveto
          -2 6 0 7 9 9 -63 callsubr
          6 18 37 86 34 66 rrcurveto
          -125 hmoveto
          1 -17 callgsubr
          6 -15 4 -16 -15 -15 -3 -8 -2 vhcurveto
          -16 -60 -24 -96 -6 -16 rrcurveto
          -2 6 0 7 8 9 -63 callsubr
          6 18 37 86 35 66 rrcurveto
          endchar
        </CharString>
        <CharString name="hyphen">
          10 26 callsubr
          200 288 rmoveto
          -13 callsubr
          279 -28 callsubr
        </CharString>
        <CharString name="i">
          10 callsubr
          hstem
          25 93 93 126 vstem
          -59 callsubr
          -48 callgsubr
          -25 -62 -15 -62 -48 vvcurveto
          -62 25 -22 31 48 60 60 38 28 vhcurveto
          27 36 26 41 19 32 rrcurveto
          endchar
        </CharString>
        <CharString name="iacute">
          10 callsubr
          122 47 callgsubr
          25 93 46 241 -194 126 vstem
          289 201 -80 callgsubr
          -93 callgsubr
          76 386 -103 callgsubr
        </CharString>
        <CharString name="icircumflex">
          10 callsubr
          304 67 hstem
          25 93 93 126 88 47 vstem
          289 201 -80 callgsubr
          -93 callgsubr
          71 308 -106 callsubr
        </CharString>
        <CharString name="idieresis">
          10 callsubr
          132 96 hstemhm
          25 93 -32 91 34 126 hintmask 11101100
          289 201 -80 callgsubr
          hintmask 11110100
          -93 callgsubr
          77 358 -104 callsubr
        </CharString>
        <CharString name="igrave">
          10 callsubr
          114 47 callgsubr
          25 93 -42 240 -105 126 vstem
          289 201 -80 callgsubr
          -93 callgsubr
          -183 383 -96 callgsubr
        </CharString>
        <CharString name="ij">
          -48 -235 27 201 85 -55 33 callsubr
          31 -20 hstemhm
          -121 71 75 93 93 126 51 126 hintmask 1011011110000000
          -59 callsubr
          hhcurveto
          hintmask 1010111110000000
          -48 callgsubr
          hintmask 1101011110000000
          -81 callsubr
          94 189 -68 callsubr
        </CharString>
        <CharString name="itilde">
          10 callsubr
          125 49 -6 49 hstem
          25 93 -41 328 -194 126 vstem
          289 201 -80 callgsubr
          -93 callgsubr
          89 377 rmoveto
          1 2 1 3 2 vvcurveto
          5 -4 3 -5 vhcurveto
          -16 -4 -41 -41 -47 -44 37 -48 hhcurveto
          -39 -38 -61 -7 -5 6 -4 5 hvcurveto
          10 10 30 43 46 38 -36 46 hhcurveto
          37 26 43 29 17 hvcurveto
          endchar
        </CharString>
        <CharString name="j">
          36 callsubr
          47 callsubr
          vstem
          206 390 -68 callsubr
        </CharString>
        <CharString name="jcircumflex">
          36 callsubr
          311 67 47 callsubr
          73 47 vstem
          206 390 -74 callgsubr
          99 115 -106 callsubr
        </CharString>
        <CharString name="k">
          -69 21 callsubr
          -53 callgsubr
          hintmask 01111000
          -60 callgsubr
          endchar
        </CharString>
        <CharString name="kcommaaccent">
          -69 -260 229 24 79 -51 -21 329 64 hstemhm
          -20 183 13 90 68 93 hintmask 11011110
          -53 callgsubr
          hintmask 10111110
          -60 callgsubr
          -227 -781 -79 callgsubr
        </CharString>
        <CharString name="kgreenlandic">
          86 21 callsubr
          573 432 rmoveto
          5 3 1 2 14 -34 9 -24 -84 -156 -132 -34 -34 hvcurveto
          10 96 168 206 51 vvcurveto
          22 -53 8 -8 -28 -19 -15 -7 -5 vhcurveto
          hintmask 01111000
          -111 -153 -114 -379 -38 -121 18 callsubr
          13 19 21 20 4 3 rrcurveto
          -90 15 99 -180 61 hhcurveto
          18 71 -1 9 27 hvcurveto
          -78 52 -101 98 -47 156 rrcurveto
          62 71 86 62 78 hhcurveto
          endchar
        </CharString>
        <CharString name="l">
          -234 -7 71 655 25 hstem
          32 85 282 -1 callgsubr
          -26 -80 -22 -77 -50 vvcurveto
          -47 19 -29 37 117 79 148 59 35 vhcurveto
          -58 callgsubr
          -5 -46 51 callsubr
          -22 -17 -50 -52 -34 hhcurveto
          -13 -9 9 21 hvcurveto
          -1 29 19 83 15 44 16 46 rcurveline
          48 callgsubr
          rrcurveto
          -4 callsubr
          endchar
        </CharString>
        <CharString name="ldot">
          -80 -7 71 199 114 342 25 hstem
          32 85 215 108 -41 -1 callgsubr
          -29 -88 -20 -79 -52 vvcurveto
          -55 23 -20 66 140 148 101 119 66 vhcurveto
          8 15 4 16 12 vvcurveto
          9 -2 6 -4 -2 -3 -3 -6 -3 vhcurveto
          -129 -69 -113 -82 -108 hhcurveto
          -34 -28 16 37 30 22 82 15 44 hvcurveto
          16 46 48 callgsubr
          rlinecurve
          -4 callsubr
          -9 -396 -33 callgsubr
        </CharString>
        <CharString name="less">
          -1 48 callsubr
          457 577 rmoveto
          -128 -97 -135 -89 -138 -78 rrcurveto
          -21 -12 -9 -8 -9 vvcurveto
          -8 9 -8 16 -11 vhcurveto
          97 -70 69 -69 85 -96 rrcurveto
          -1 1 -9 callsubr
          hhcurveto
          14 44 33 20 2 0 2 -1 2 hvcurveto
          -41 71 -124 98 -73 52 73 44 209 142 41 49 rrcurveto
          7 10 8 20 8 vvcurveto
          3 0 1 -2 21 callgsubr
          -1 vhcurveto
          endchar
        </CharString>
        <CharString name="logicalnot">
          331 317 50 hstem
          646 64 vstem
          710 321 rmoveto
          2 1 2 2 vvcurveto
          23 -30 19 -12 vhcurveto
          -666 -10 rlineto
          -45 vlineto
          643 9 rlineto
          0 -14 -191 -7 -101 vhcurveto
          -8 2 8 -5 6 hhcurveto
          15 42 248 55 12 hvcurveto
          endchar
        </CharString>
        <CharString name="lslash">
          -239 -7 71 110 159 386 25 hstemhm
          -28 319 -257 85 282 36 hintmask 11101100
          -15 219 rmoveto
          hintmask 11110100
          -7 -3 -6 -30 -10 vvcurveto
          36 callgsubr
          1 vhcurveto
          86 32 rlineto
          -15 -52 -11 -49 -35 vvcurveto
          -47 19 -29 37 56 66 58 40 30 vhcurveto
          38 50 44 64 34 -7 callsubr
          6 -4 -5 -46 11 callgsubr
          -22 -17 -50 -52 -34 hhcurveto
          -13 -9 9 21 28 15 72 14 46 hvcurveto
          131 49 rlineto
          6 2 7 29 10 vvcurveto
          42 callgsubr
          -1 vhcurveto
          -127 -47 4 10 rlineto
          90 85 180 215 101 vvcurveto
          27 -12 20 -40 -162 -129 -409 -83 -21 vhcurveto
          316 467 -32 callgsubr
          endchar
        </CharString>
        <CharString name="m">
          185 33 callgsubr
          358 47 -6 -20 hstemhm
          188 12 207 10 54 98 -23 100 hintmask 10011110
          737 -37 callgsubr
          -14 -11 -44 -48 -25 hhcurveto
          -14 -3 13 15 46 49 115 17 44 hvcurveto
          hintmask 10011101
          8 21 4 17 14 vvcurveto
          hintmask 10101110
          29 -18 15 -34 -72 -67 -43 -48 -48 vhcurveto
          7 18 4 16 13 vvcurveto
          30 -18 14 -35 -84 -71 -61 -19 -21 vhcurveto
          3 10 9 19 17 vvcurveto
          19 -6 10 -48 vhcurveto
          -14 -16 0 -12 hhcurveto
          2 -3 0 -4 -6 vvcurveto
          -36 -32 -90 -8 -20 vhcurveto
          -65 -166 rlineto
          hintmask 01011110
          -13 -33 -11 -42 0 vvcurveto
          -8 callgsubr
          hintmask 10101110
          9 17 13 3 9 hhcurveto
          15 4 -9 -14 -35 -24 -54 -21 -56 hvcurveto
          hintmask 01011110
          -24 -63 -23 -63 -23 -64 rrcurveto
          98 hlineto
          35 114 37 174 116 58 rrcurveto
          hintmask 10101110
          -31 callgsubr
          48 60 60 38 28 vhcurveto
          27 36 26 41 19 32 rrcurveto
          endchar
        </CharString>
        <CharString name="macron">
          34 637 53 hstem
          243 349 vstem
          315 685 rmoveto
          -10 -25 -34 -6 -1 -34 callsubr
          hvcurveto
          241 hlineto
          10 25 33 7 0 -14 callsubr
          endchar
        </CharString>
        <CharString name="mu">
          -27 0 callgsubr
          31 -20 hstemhm
          22 104 135 93 hintmask 10101100
          525 202 18 callgsubr
          15 12 vvcurveto
          9 -2 6 -56 callsubr
          hvcurveto
          hintmask 10011100
          69 93 200 37 24 vhcurveto
          -52 callgsubr
          hintmask 01101100
          -64 -40 -92 -219 30 callsubr
          17 48 35 83 35 49 rrcurveto
          -45 hlineto
          -41 -18 -2 -20 -13 hvcurveto
          -39 -60 -24 -75 -20 -62 -24 -73 -24 -74 -29 -70 rrcurveto
          -67 -28 -52 -94 -71 hhcurveto
          -50 callgsubr
          144 84 120 111 50 hvcurveto
          -1 3 4 0 3 hhcurveto
          41 64 20 113 81 hvcurveto
          -51 callgsubr
          41 19 32 rrcurveto
          endchar
        </CharString>
        <CharString name="multiply">
          260 26 callsubr
          414 342 rmoveto
          -175 169 rlineto
          0 0 0 -1 -5 -15 -47 -23 -5 1 -3 2 -2 vhcurveto
          135 -130 -187 -133 rlineto
          -9 -6 -6 -39 -21 vvcurveto
          -8 1 -5 2 vhcurveto
          0 1 0 0 vhcurveto
          241 171 179 -171 rlineto
          0 0 0 0 6 14 46 22 5 -1 4 -2 2 vhcurveto
          -139 133 183 130 rlineto
          10 7 5 38 21 vvcurveto
          8 0 6 -2 -1 0 0 0 vhcurveto
          endchar
        </CharString>
        <CharString name="n">
          17 callgsubr
          hstemhm
          103 93 124 91 hintmask 10011100
          -62 callsubr
          hintmask 01101100
          -42 callgsubr
          -49 callgsubr
          endchar
        </CharString>
        <CharString name="nacute">
          17 callgsubr
          114 35 callgsubr
          103 93 51 241 -168 91 hintmask 10011110
          -62 callsubr
          hintmask 01101110
          -42 callgsubr
          hintmask 10011101
          -49 callgsubr
          -60 377 -103 callgsubr
        </CharString>
        <CharString name="nine">
          134 -12 66 178 43 45 87 367 59 hstem
          6 110 -37 143 362 140 vstem
          467 126 rmoveto
          75 94 54 154 123 vvcurveto
          126 -57 91 -179 -151 -129 -89 -170 -117 84 -85 132 53 65 18 39 54 vhcurveto
          -47 -124 -41 -88 -102 -57 rrcurveto
          -14 -25 -28 -8 -27 hhcurveto
          -46 -41 24 59 24 3 34 17 25 hvcurveto
          6 -12 -12 3 -13 hhcurveto
          -48 -26 -47 -40 -101 87 -19 73 119 98 51 88 70 hvcurveto
          -108 552 rmoveto
          89 45 -74 -93 -115 -42 -101 -125 -89 -53 80 89 101 68 112 107 1 hvcurveto
          endchar
        </CharString>
        <CharString name="ntilde">
          17 callgsubr
          172 49 hstemhm
          103 93 -45 328 -159 91 hintmask 10011010
          -62 callsubr
          hintmask 10101010
          -32 callsubr
          hintmask 01011101
          -21 callgsubr
          hintmask 10101010
          24 callsubr
          hintmask 10011101
          -49 callgsubr
          -56 380 rmoveto
          1 2 1 3 2 vvcurveto
          5 -4 3 -5 vhcurveto
          -16 -4 -41 -41 -47 -44 37 -48 hhcurveto
          -39 -38 -61 -7 -5 6 -4 5 hvcurveto
          10 10 30 43 46 38 -36 46 hhcurveto
          37 26 43 29 17 hvcurveto
          endchar
        </CharString>
        <CharString name="numbersign">
          301 190 65 148 65 hstem
          60 688 vstem
          603 468 rmoveto
          28 71 rlineto
          1 -17 callgsubr
          17 -37 48 -6 -1 -16 callsubr
          vhcurveto
          -53 -137 rlineto
          -157 hlineto
          27 71 rlineto
          1 -17 callgsubr
          17 -36 48 -7 -1 -16 callsubr
          vhcurveto
          -53 -137 rlineto
          -128 hlineto
          4 callsubr
          149 hlineto
          -57 -147 rlineto
          -118 hlineto
          -13 -33 -35 callgsubr
          138 2 callsubr
          158 2 callsubr
          134 hlineto
          14 33 54 9 -37 callsubr
          -155 hlineto
          57 147 rlineto
          124 hlineto
          14 33 54 9 -37 callsubr
          -296 -212 rmoveto
          -157 hlineto
          56 147 rlineto
          157 hlineto
          endchar
        </CharString>
        <CharString name="o">
          -31 -7 callgsubr
          41 callsubr
          hintmask 01111000
          -83 callgsubr
          hintmask 10111000
          -82 callgsubr
          endchar
        </CharString>
        <CharString name="oacute">
          -31 -7 callgsubr
          89 35 callgsubr
          35 96 99 241 -121 -92 callgsubr
          81 273 -103 callgsubr
        </CharString>
        <CharString name="ocircumflex">
          -31 -7 callgsubr
          270 67 41 callsubr
          106 47 hintmask 01111110
          -83 callgsubr
          hintmask 10111110
          -82 callgsubr
          87 194 -106 callsubr
        </CharString>
        <CharString name="odieresis">
          -31 -7 callgsubr
          96 96 hstemhm
          35 96 69 91 59 46 18 91 hintmask 01111111
          -83 callgsubr
          hintmask 10111111
          -82 callgsubr
          130 242 -104 callsubr
        </CharString>
        <CharString name="oe">
          168 -7 callgsubr
          41 callsubr
          hintmask 01111000
          721 202 -65 callsubr
          -5 -46 -86 -32 -26 vhcurveto
          -46 -37 -64 -61 -64 hhcurveto
          -50 -21 34 48 13 1 13 3 14 hvcurveto
          85 6 166 81 98 vvcurveto
          48 -42 15 -43 -74 -65 -40 -56 -47 vhcurveto
          55 -6 -32 47 -80 hhcurveto
          -19 callgsubr
          hvcurveto
          hintmask 10111000
          -87 51 -35 62 83 54 39 52 39 vhcurveto
          1 -4 rlineto
          -51 10 40 -38 78 hhcurveto
          132 65 99 113 71 hvcurveto
          -111 101 rmoveto
          -48 -78 -91 -34 -48 -10 rrcurveto
          92 23 84 95 63 hhcurveto
          20 9 -12 -16 -11 -4 -14 -8 -12 hvcurveto
          -292 -139 rmoveto
          -49 -23 -51 -85 -61 hhcurveto
          -38 -14 29 36 43 19 54 17 35 hvcurveto
          47 23 51 86 61 hhcurveto
          38 14 -28 -36 -43 -19 -54 -17 -35 hvcurveto
          endchar
        </CharString>
        <CharString name="ogonek">
          190 -289 55 hstem
          455 71 vstem
          641 -185 rmoveto
          4 6 3 9 5 vvcurveto
          2 -1 2 -2 -2 -5 -4 -11 -8 vhcurveto
          -37 -27 -29 -32 -20 hhcurveto
          -15 -13 18 33 66 41 104 74 23 hvcurveto
          5 1 5 5 4 vvcurveto
          3 -3 2 -7 -109 -76 -133 -108 -46 25 -27 30 43 45 47 68 42 vhcurveto
          endchar
        </CharString>
        <CharString name="ograve">
          -31 -7 callgsubr
          84 35 callgsubr
          35 96 16 240 -37 -92 callgsubr
          -173 273 -96 callgsubr
        </CharString>
        <CharString name="one">
          -131 26 -21 hstem
          19 136 vstem
          264 708 rmoveto
          -175 -208 rlineto
          35 hlineto
          142 132 rlineto
          0 -207 -550 -35 -82 vhcurveto
          121 hlineto
          19 101 156 445 70 162 rrcurveto
          endchar
        </CharString>
        <CharString name="onehalf">
          470 13 -21 102 48 50 -21 456 49 26 -20 hstemhm
          -4 113 -95 607 -164 67 31 89 206 135 hintmask 1111110111000000
          926 439 -66 callgsubr
          -304 255 rmoveto
          -38 callgsubr
          hintmask 1111101001000000
          -41 callsubr
          128 800 -47 callgsubr
          endchar
        </CharString>
        <CharString name="onequarter">
          513 22 -21 155 -21 141 33 50 18 325 -20 hstemhm
          -3 113 -57 607 -215 61 183 114 hintmask 1111110110000000
          989 -67 callsubr
          -328 397 rmoveto
          -38 callgsubr
          hintmask 1111101010000000
          -41 callsubr
          90 764 -47 callgsubr
          547 -194 13 callsubr
        </CharString>
        <CharString name="onesuperior">
          -189 156 -21 hstem
          -4 113 vstem
          194 706 -47 callgsubr
          endchar
        </CharString>
        <CharString name="ordfeminine">
          -7 295 -23 callsubr
          0 callsubr
          hintmask 11011100
          545 504 18 callgsubr
          15 12 vvcurveto
          9 -2 6 -4 -4 -48 11 callgsubr
          -28 -36 -34 -26 -17 1 rrcurveto
          -101 callsubr
          47 59 6 callgsubr
          41 19 32 rrcurveto
          -183 132 -78 callsubr
          hintmask 11101100
          -55 callgsubr
          endchar
        </CharString>
        <CharString name="ordmasculine">
          -44 288 38 -7 48 290 46 hstemhm
          2 96 219 46 hintmask 01111000
          475 498 -60 callsubr
          -4 -47 11 callgsubr
          -29 -22 -31 -38 -30 hhcurveto
          -12 -9 6 10 -5 hvcurveto
          36 54 34 66 77 vvcurveto
          64 -29 59 -90 -19 callgsubr
          vhcurveto
          hintmask 10111000
          -87 52 -35 62 60 46 21 31 34 vhcurveto
          hintmask 01111000
          -14 12 15 -7 17 hhcurveto
          67 61 104 75 47 hvcurveto
          -188 -34 rmoveto
          7 -4 -6 4 -6 hhcurveto
          -17 -21 -24 -40 -6 1 -6 1 -6 hvcurveto
          2 -13 rlineto
          hintmask 10111000
          -32 -26 -28 -22 -33 -69 callgsubr
          38 11 -31 -37 -41 -15 -48 -9 -21 hvcurveto
          endchar
        </CharString>
        <CharString name="oslash">
          -31 -8 38 -15 -21 29 48 290 46 46 53 hstemhm
          10 124 -99 96 228 61 hintmask 01111101
          -76 callsubr
          30 -5 28 -15 23 vhcurveto
          70 111 rlineto
          0 -17 callgsubr
          2 -5 0 -7 -10 -12 -2 -3 -2 vhcurveto
          -55 -87 rlineto
          14 -18 -26 9 -34 hhcurveto
          hintmask 01111011
          -19 callgsubr
          -69 31 -36 45 -12 hvcurveto
          -69 -110 rlineto
          -54 callgsubr
          -2 4 0 6 10 14 2 3 2 vhcurveto
          hintmask 10011101
          65 103 rlineto
          2 hlineto
          115 59 69 84 42 hvcurveto
          -71 callsubr
          -350 -19 rmoveto
          47 23 51 87 61 hhcurveto
          14 11 -4 -8 7 hvcurveto
          -190 -301 rlineto
          hintmask 01111011
          -9 12 -4 17 19 vvcurveto
          43 19 53 17 35 vhcurveto
          157 -51 rmoveto
          hintmask 10011101
          -54 -24 -53 -92 -64 hhcurveto
          -6 -4 1 1 -5 hvcurveto
          124 196 4 -21 12 -18 16 -13 rlinecurve
          endchar
        </CharString>
        <CharString name="otilde">
          -31 -7 callgsubr
          138 49 hstemhm
          35 96 16 328 -125 -92 callgsubr
          98 267 rmoveto
          1 2 1 3 2 vvcurveto
          5 -4 3 -5 vhcurveto
          -16 -4 -41 -41 -47 -44 37 -48 hhcurveto
          -39 -38 -61 -7 -5 6 -4 5 hvcurveto
          10 10 30 43 46 38 -36 46 hhcurveto
          37 26 43 29 17 hvcurveto
          endchar
        </CharString>
        <CharString name="p">
          -86 -227 -21 231 43 -43 48 288 80 4 -20 hstemhm
          67 24 201 98 hintmask 10101110
          473 214 rmoveto
          7 12 3 13 9 vvcurveto
          10 -4 7 -4 -5 -51 -95 12 callgsubr
          -42 -32 -64 -64 -61 -3 -2 0 -3 hhcurveto
          84 56 77 120 104 vvcurveto
          68 -30 24 -37 -56 -57 -56 -68 -51 vhcurveto
          26 52 34 55 19 13 rrcurveto
          -30 hlineto
          -85 -6 -27 -71 -29 hvcurveto
          -67 -163 -104 -330 -39 -57 31 callgsubr
          rlineto
          -45 11 53 -4 39 hhcurveto
          146 85 104 128 70 hvcurveto
          hintmask 11010110
          -195 105 32 callgsubr
          -67 -98 -197 -76 19 callgsubr
          3 3 46 callsubr
        </CharString>
        <CharString name="paragraph">
          78 337 29 312 20 hstemhm
          42 101 -24 55 97 55 hintmask 11011000
          309 698 rmoveto
          -168 -98 -118 -101 -76 55 -66 123 10 11 0 1 11 hvcurveto
          -89 -215 -45 -119 -73 vvcurveto
          -35 12 -21 29 vhcurveto
          57 hlineto
          -20 7 -8 23 32 vvcurveto
          29 6 36 10 36 vhcurveto
          22 85 91 227 43 88 25 50 68 132 53 58 rrcurveto
          53 hlineto
          -35 -35 -55 -117 -46 -97 rrcurveto
          -79 -166 -74 -195 -75 vvcurveto
          -35 12 -21 29 vhcurveto
          71 hlineto
          -20 7 -8 23 31 vvcurveto
          82 78 210 73 148 vhcurveto
          27 56 84 163 54 41 rrcurveto
          -240 -20 rmoveto
          -40 -31 -79 -177 -47 -103 rrcurveto
          hintmask 11101000
          -77 -45 63 70 85 66 93 155 hvcurveto
          endchar
        </CharString>
        <CharString name="parenleft">
          140 -52 45 713 -20 hstem
          49 92 vstem
          612 706 rmoveto
          -273 -45 -289 -297 -267 vvcurveto
          -73 27 -77 92 29 43 8 8 21 vhcurveto
          7 30 rlineto
          -1 -8 -11 -1 -14 hhcurveto
          -74 -21 57 67 246 227 259 236 59 hvcurveto
          endchar
        </CharString>
        <CharString name="parenright">
          94 661 45 hstem
          471 92 vstem
          547 443 rmoveto
          9 35 7 40 39 vvcurveto
          72 -27 78 -92 -29 -43 -8 -8 -21 vhcurveto
          -7 -30 rlineto
          1 7 13 1 13 hhcurveto
          73 21 -57 -67 -246 -226 -258 -236 -60 hvcurveto
          -8 -27 231 39 254 225 61 231 rlinecurve
          endchar
        </CharString>
        <CharString name="percent">
          190 1 callsubr
          hintmask 0111111111000000
          577 672 -46 callsubr
          -328 -575 rlineto
          -54 callgsubr
          hintmask 1011111111000000
          -3 12 -1 13 vhcurveto
          hintmask 0111111111000000
          -22 callsubr
          hintmask 1011111111000000
          16 callsubr
          -303 367 -42 callsubr
        </CharString>
        <CharString name="period">
          -209 -11 38 callgsubr
          113 43 callgsubr
          -6 callgsubr
          endchar
        </CharString>
        <CharString name="periodcentered">
          -209 263 38 callgsubr
          158 43 callgsubr
          263 323 -33 callgsubr
        </CharString>
        <CharString name="perthousand">
          421 1 callsubr
          29 74 134 47 hintmask 1011111111110000
          870 146 -5 callgsubr
          16 callsubr
          -293 526 -46 callsubr
          hintmask 0111111111110000
          -328 -575 rlineto
          -54 callgsubr
          hintmask 1011111111110000
          -3 12 -1 13 vhcurveto
          hintmask 0111111111110000
          -22 callsubr
          hintmask 1011111111110000
          16 callsubr
          233 -8 -29 callsubr
          -536 375 -42 callsubr
        </CharString>
        <CharString name="plus">
          242 317 50 hstem
          45 656 -72 callgsubr
          endchar
        </CharString>
        <CharString name="plusminus">
          242 -18 -21 356 50 hstem
          -36 737 -72 callgsubr
          -689 -412 rmoveto
          -14 -33 -48 -9 -1 -34 callsubr
          hvcurveto
          483 hlineto
          14 33 48 9 1 0 0 -1 hvcurveto
          endchar
        </CharString>
        <CharString name="q">
          -17 -224 -21 262 49 callgsubr
          -4 -20 hstem
          27 97 240 7 vstem
          536 202 8 callsubr
          -5 -49 -90 -30 -24 vhcurveto
          -29 -23 -30 -38 -28 hhcurveto
          -18 -9 17 23 hvcurveto
          42 callgsubr
          2 vvcurveto
          29 86 58 164 55 34 rrcurveto
          -30 hlineto
          -63 -20 -15 -37 -18 hvcurveto
          44 -15 -47 12 -33 -52 callsubr
          29 -23 38 76 77 96 114 63 hvcurveto
          -65 -181 -59 -197 -54 -74 rrcurveto
          92 31 32 48 15 hvcurveto
          24 79 20 72 21 70 rrcurveto
          -15 6 14 -8 16 hhcurveto
          71 59 113 56 34 hvcurveto
          -182 119 rmoveto
          -17 -7 -120 -224 -78 hhcurveto
          30 callgsubr
          21 88 96 168 94 21 17 -9 -21 8 hvcurveto
          endchar
        </CharString>
        <CharString name="question">
          71 641 34 hstem
          105 77 -72 60 228 113 vstem
          553 539 rmoveto
          1 6 0 6 5 vvcurveto
          94 -93 25 -95 -81 -139 -35 -96 -41 27 -25 29 9 10 3 5 9 vhcurveto
          -5 10 -2 11 10 vvcurveto
          98 108 26 23 51 35 -34 -60 -92 -221 -129 -3 -4 vhcurveto
          -32 -24 -33 -38 -41 vvcurveto
          -19 8 -8 15 17 21 13 16 vhcurveto
          5 -1 5 4 vvcurveto
          72 107 48 76 32 vhcurveto
          77 32 72 34 10 86 rrcurveto
          -358 -490 -78 callgsubr
        </CharString>
        <CharString name="questiondown">
          28 432 38 callgsubr
          141 216 32 43 callgsubr
          434 -22 rmoveto
          1 5 0 5 4 vvcurveto
          41 -26 25 -30 -9 -10 -3 -5 -9 vhcurveto
          5 -11 2 -11 -10 vvcurveto
          -97 -107 -26 -23 -49 -37 34 60 92 220 129 4 4 vhcurveto
          32 24 32 37 41 vvcurveto
          20 -8 8 -15 -17 -21 -13 -16 vhcurveto
          -5 2 -5 -5 vvcurveto
          -72 -108 -48 -75 -31 vhcurveto
          -81 -34 -80 -37 -98 vvcurveto
          -95 95 -24 93 79 127 33 84 13 vhcurveto
          72 516 -78 callgsubr
        </CharString>
        <CharString name="quotedbl">
          -107 491 210 hstem
          53 304 vstem
          357 688 rmoveto
          1 -9 callsubr
          0 vvcurveto
          7 -22 4 -22 -21 -21 -3 -9 -4 vhcurveto
          -27 -69 -39 -108 -12 -17 rrcurveto
          -2 8 -1 8 9 10 1 3 2 vhcurveto
          10 21 62 96 58 75 rrcurveto
          -138 hmoveto
          37 callgsubr
          vvcurveto
          6 -22 4 -22 -20 -21 -3 -9 -4 vhcurveto
          -27 -69 -40 -108 -11 -17 rrcurveto
          -2 7 -1 9 9 10 1 3 1 vhcurveto
          10 21 63 96 57 75 rrcurveto
          endchar
        </CharString>
        <CharString name="quotedblbase">
          -39 180 -20 hstem
          107 168 -22 168 vstem
          234 107 -70 callsubr
        </CharString>
        <CharString name="quotedblleft">
          -107 472 113 hstem
          52 106 50 106 vstem
          72 476 rmoveto
          -67 callgsubr
          157 hmoveto
          -67 callgsubr
          endchar
        </CharString>
        <CharString name="quotedblright">
          -107 594 112 hstem
          96 107 50 106 vstem
          184 701 -70 callsubr
        </CharString>
        <CharString name="quoteleft">
          472 113 -113 231 hstem
          52 106 vstem
          73 476 rmoveto
          -67 callgsubr
          endchar
        </CharString>
        <CharString name="quoteright">
          -321 594 112 0 -20 hstemhm
          127 107 hintmask 01100000
          209 701 rmoveto
          -20 callsubr
          hvcurveto
          hintmask 10100000
          -21 11 -17 23 vhcurveto
          -85 callsubr
          endchar
        </CharString>
        <CharString name="quotesinglbase">
          -198 180 -20 hstem
          107 168 vstem
          234 107 -36 callgsubr
          endchar
        </CharString>
        <CharString name="quotesingle">
          -337 701 -20 hstem
          94 168 vstem
          256 650 -79 callgsubr
        </CharString>
        <CharString name="r">
          -144 -7 25 callgsubr
          hstem
          -194 93 vstem
          409 203 -27 callgsubr
          10 vvcurveto
          10 -3 8 -4 -5 -47 -88 -31 -24 vhcurveto
          -29 -36 -35 -25 -17 -1 rrcurveto
          -13 -7 12 18 61 50 95 40 78 hvcurveto
          7 14 21 38 26 callgsubr
          -25 7 callsubr
          -28 -24 -23 -27 -19 -10 callsubr
          52 callsubr
          hhcurveto
          -35 -32 21 37 6 0 6 2 6 hvcurveto
          8 -8 -14 6 -14 hhcurveto
          -31 -16 -27 -25 -22 12 -24 24 -12 hvcurveto
          -4 -12 -51 -86 -32 vvcurveto
          -11 2 -8 3 1 1 -63 callsubr
          40 65 23 50 11 22 rrcurveto
          -3 7 8 -2 8 hhcurveto
          24 26 12 16 20 hvcurveto
          -61 -95 -26 -103 -70 vvcurveto
          -54 18 -30 39 48 62 62 36 27 vhcurveto
          27 37 26 42 20 33 rrcurveto
          endchar
        </CharString>
        <CharString name="rcaron">
          -118 -7 25 callgsubr
          81 -20 hstem
          -194 93 248 365 vstem
          409 203 -27 callgsubr
          10 vvcurveto
          10 -3 8 -4 -5 -47 -88 -31 -24 vhcurveto
          -29 -36 -35 -25 -17 -1 rrcurveto
          -13 -7 12 18 61 50 95 40 78 hvcurveto
          7 14 21 38 26 callgsubr
          -25 7 callsubr
          -28 -24 -23 -27 -19 -10 callsubr
          52 callsubr
          hhcurveto
          -35 -32 21 37 6 0 6 2 6 hvcurveto
          8 -8 -14 6 -14 hhcurveto
          -31 -16 -27 -25 -22 12 -24 24 -12 hvcurveto
          -4 -12 -51 -86 -32 vvcurveto
          -11 2 -8 3 1 1 -63 callsubr
          40 65 23 50 11 22 rrcurveto
          -3 7 8 -2 8 hhcurveto
          24 26 12 16 20 hvcurveto
          -61 -95 -26 -103 -70 vvcurveto
          -54 18 -30 39 48 62 62 36 27 vhcurveto
          27 37 26 42 20 33 rrcurveto
          -233 420 -92 callsubr
        </CharString>
        <CharString name="rcommaaccent">
          -144 -267 229 31 25 callgsubr
          hstem
          -194 93 45 183 vstem
          409 203 -27 callgsubr
          10 vvcurveto
          10 -3 8 -4 -5 -47 -88 -31 -24 vhcurveto
          -29 -36 -35 -25 -17 -1 rrcurveto
          -13 -7 12 18 61 50 95 40 78 hvcurveto
          7 14 21 38 26 callgsubr
          -25 7 callsubr
          -28 -24 -23 -27 -19 -10 callsubr
          52 callsubr
          hhcurveto
          -35 -32 21 37 6 0 6 2 6 hvcurveto
          8 -8 -14 6 -14 hhcurveto
          -31 -16 -27 -25 -22 12 -24 24 -12 hvcurveto
          -4 -12 -51 -86 -32 vvcurveto
          -11 2 -8 3 1 1 -63 callsubr
          40 65 23 50 11 22 rrcurveto
          -3 7 8 -2 8 hhcurveto
          24 26 12 16 20 hvcurveto
          -61 -95 -26 -103 -70 vvcurveto
          -54 18 -30 39 48 62 62 36 27 vhcurveto
          27 37 26 42 20 33 rrcurveto
          -288 -274 -79 callgsubr
        </CharString>
        <CharString name="registered">
          351 114 14 212 18 206 20 hstem
          133 75 262 71 -64 callsubr
          -101 160 rmoveto
          49 -37 43 -88 vhcurveto
          -105 hlineto
          -31 -47 -58 -138 -14 -35 -38 -90 -37 -94 -15 -67 rrcurveto
          87 hlineto
          -2 3 -1 6 6 vvcurveto
          49 49 123 15 37 vhcurveto
          28 69 48 103 40 54 rrcurveto
          65 29 -32 -43 -86 -84 -36 -79 -7 hvcurveto
          -7 -1 -2 -5 -5 vvcurveto
          -31 62 -203 60 vhcurveto
          0 28 -2 24 12 12 0 2 7 vhcurveto
          -44 46 -66 76 -32 110 22 4 rcurveline
          72 13 80 46 83 vvcurveto
          endchar
        </CharString>
        <CharString name="ring">
          75 521 184 0 -20 hstem
          340 53 120 31 vstem
          539 611 -39 callgsubr
        </CharString>
        <CharString name="s">
          -102 -17 34 12 21 331 30 hstem
          19 46 callgsubr
          vstem
          451 203 -65 callsubr
          -5 -40 -74 -22 -15 vhcurveto
          -31 -47 -44 -54 -44 -19 rrcurveto
          -13 callgsubr
          -91 -53 -53 -71 vhcurveto
          -92 116 -20 -87 -18 callgsubr
          -34 -18 -36 -28 -59 64 -26 68 135 64 65 158 95 hvcurveto
          endchar
        </CharString>
        <CharString name="scaron">
          -79 -17 34 12 21 331 30 84 -20 hstemhm
          37 46 callgsubr
          hintmask 1111111000000000
          461 203 rmoveto
          8 13 3 17 12 vvcurveto
          9 -2 6 -3 -14 -65 -177 -42 -101 vhcurveto
          -13 callgsubr
          -90 -54 -51 -71 vhcurveto
          -94 116 -19 -88 -3 callgsubr
          149 70 84 136 80 hvcurveto
          -245 403 rmoveto
          hintmask 1111110110000000
          -40 32 46 -88 15 hhcurveto
          6 7 3 7 6 hvcurveto
          46 48 47 39 53 43 rrcurveto
          0 -17 callgsubr
          2 -9 1 -9 -22 -71 -62 -33 -35 vhcurveto
          24 -12 -41 75 -22 hhcurveto
          -12 -25 -15 -5 0 -48 callsubr
        </CharString>
        <CharString name="section">
          377 -227 98 634 -20 185 40 hstem
          8 74 106 80 122 136 30 115 -17 73 vstem
          759 -15 callgsubr
          -6 0 -6 1 -5 vhcurveto
          -21 hlineto
          -128 -107 -73 -120 -83 53 -50 54 -57 hvcurveto
          40 -43 53 -52 -73 vvcurveto
          -90 -78 -58 -80 vhcurveto
          -54 3 -35 32 42 vvcurveto
          -5 callsubr
          -89 90 -35 114 145 121 95 116 10 hvcurveto
          141 8 114 99 117 vvcurveto
          53 -23 56 -53 54 vhcurveto
          -55 55 -96 70 71 vvcurveto
          61 55 56 79 44 37 -22 -37 -31 -30 -34 -36 25 callsubr
          25 -12 30 5 6 0 1 6 vhcurveto
          -207 -166 rmoveto
          39 -43 54 -51 -74 vvcurveto
          -79 -63 -60 -71 -9 vhcurveto
          -6 46 -23 49 -46 46 rrcurveto
          14 callsubr
          13 11 0 1 9 vhcurveto
          17 -55 41 -40 42 -44 rrcurveto
          endchar
        </CharString>
        <CharString name="semicolon">
          -138 -132 229 205 38 callgsubr
          160 43 callgsubr
          353 337 -91 callgsubr
          -107 -273 -79 callgsubr
        </CharString>
        <CharString name="seven">
          59 -29 99 639 101 hstem
          59 161 vstem
          523 637 rmoveto
          18 23 3 13 9 vvcurveto
          8 -2 18 -13 vhcurveto
          -253 hlineto
          -47 -37 5 -27 hhcurveto
          -54 -12 -16 -84 -20 hvcurveto
          -9 -37 -7 -42 -11 -30 rrcurveto
          21 callgsubr
          -1 vvcurveto
          -3 3 -3 7 -1 vhcurveto
          67 -78 140 183 hhcurveto
          212 hlineto
          1 -5 1 -4 -5 -100 -395 -243 -200 vvcurveto
          -57 42 -31 47 37 51 18 59 13 vhcurveto
          -2 -7 -7 -1 -6 hhcurveto
          -30 -11 26 23 36 22 48 14 25 hvcurveto
          66 122 153 182 87 112 rrcurveto
          endchar
        </CharString>
        <CharString name="six">
          103 -14 73 369 80 262 54 hstem
          22 139 348 141 -50 95 vstem
          566 532 rmoveto
          15 9 8 22 25 vvcurveto
          90 -82 35 -75 -237 -164 -295 -222 -118 45 -84 158 155 157 95 191 104 -68 72 -118 -64 -72 -17 -47 -57 vhcurveto
          161 57 102 121 107 hhcurveto
          46 35 -20 -48 -18 -8 -23 -18 -12 hvcurveto
          -24 10 16 -9 17 hhcurveto
          12 12 5 7 11 hvcurveto
          -256 -119 rmoveto
          85 45 -66 -86 -108 -78 -125 -116 -78 -36 66 81 121 53 111 125 6 hvcurveto
          endchar
        </CharString>
        <CharString name="slash">
          -25 702 -20 hstem
          70 607 vstem
          678 694 rmoveto
          -38 callgsubr
          -41 callsubr
          endchar
        </CharString>
        <CharString name="space">
          -180 endchar
        </CharString>
        <CharString name="sterling">
          163 -8 76 13 30 212 47 242 76 hstem
          532 24 16 61 vstem
          630 125 rmoveto
          -8 26 -27 18 -27 1 rrcurveto
          -3 -5 -6 -2 -1 0 0 0 hvcurveto
          10 -7 3 -10 -11 vvcurveto
          -50 -55 -15 -61 -74 -87 22 7 -33 vhcurveto
          -28 6 -27 6 -25 3 42 51 29 67 26 59 15 34 rcurveline
          111 hlineto
          11 19 35 9 2 -14 callsubr
          -118 hlineto
          92 43 73 150 61 hhcurveto
          17 15 -14 -38 6 hvcurveto
          -1 1 -1 1 10 12 32 25 44 -24 30 -50 -129 -80 -182 -137 -49 vhcurveto
          -79 hlineto
          -12 -19 -36 -9 36 callgsubr
          1 hvcurveto
          92 hlineto
          -28 -78 -26 -75 -35 -58 rrcurveto
          -54 -7 -44 -39 -44 vvcurveto
          -18 9 -13 15 vhcurveto
          50 22 91 62 52 113 -91 127 hhcurveto
          105 58 64 52 6 -1 6 -2 6 hvcurveto
          endchar
        </CharString>
        <CharString name="t">
          -231 -7 83 291 31 hstem
          26 95 vstem
          346 573 rmoveto
          -1 -5 -29 0 -14 hhcurveto
          -68 -49 -103 -70 -29 hvcurveto
          -76 hlineto
          -5 -14 -20 -8 -2 1 -1 2 hvcurveto
          67 hlineto
          -38 -94 -51 -68 -37 vvcurveto
          -6 1 -3 3 3 24 30 39 21 vhcurveto
          -1 vlineto
          -15 -41 -17 -61 -52 vvcurveto
          -44 15 -36 42 46 60 61 37 28 vhcurveto
          38 51 44 62 1 35 rrcurveto
          9 -2 7 -4 -5 -46 -86 -32 -26 vhcurveto
          -37 -29 -32 -23 -21 hhcurveto
          -14 -10 11 27 59 46 111 33 82 hvcurveto
          86 hlineto
          11 19 24 6 0 -14 callsubr
          -101 hlineto
          44 102 38 53 28 19 rrcurveto
          endchar
        </CharString>
        <CharString name="thorn">
          -86 -9 35 -2 47 248 84 0 -20 270 -20 69 -20 hstemhm
          -17 80 186 151 hintmask 01011111
          466 50 callgsubr
          3 15 11 vvcurveto
          9 -2 7 -4 -4 -47 -86 -34 -26 vhcurveto
          -32 -41 -64 -66 -62 1 rrcurveto
          -3 -2 37 callsubr
          83 63 78 110 108 vvcurveto
          68 -30 24 -37 -57 -69 -64 -73 -47 vhcurveto
          21 73 26 72 29 71 24 57 50 90 25 16 rrcurveto
          -30 hlineto
          -156 -77 -427 -124 -52 hvcurveto
          -4 -9 -4 -16 -4 -19 -50 -140 -32 -105 -38 -54 31 callgsubr
          3 -11 rlineto
          -29 12 42 -8 40 hhcurveto
          130 78 51 167 92 hvcurveto
          hintmask 01101111
          -188 118 32 callgsubr
          hintmask 10011111
          -68 -99 -196 -75 19 callgsubr
          hintmask 01101111
          3 3 46 callsubr
        </CharString>
        <CharString name="three">
          120 -34 53 244 20 112 60 313 52 hstem
          24 130 60 56 216 161 -109 153 vstem
          389 380 rmoveto
          132 36 72 85 77 vvcurveto
          111 -101 28 -102 -99 -141 -47 -110 -43 23 -24 27 8 7 2 3 8 vhcurveto
          -4 13 -2 13 13 vvcurveto
          79 66 74 81 82 32 -49 -56 -93 -75 -81 -99 -25 vhcurveto
          11 -24 -28 6 -24 hhcurveto
          -40 -16 -20 -20 -14 9 -14 15 4 4 1 2 4 hvcurveto
          12 27 27 6 24 hhcurveto
          86 63 -68 -85 -102 -83 -82 -103 -74 -62 34 79 32 14 34 24 35 hvcurveto
          6 -12 -14 4 -13 hhcurveto
          -57 -35 -60 -50 -107 108 -39 108 148 169 88 143 72 -52 72 -112 18 hvcurveto
          endchar
        </CharString>
        <CharString name="threequarters">
          740 22 -21 106 43 126 33 41 17 91 49 195 -20 82 42 hstemhm
          7 107 51 47 103 607 -532 133 153 61 183 114 hintmask 1111111110111000
          1220 -67 callsubr
          -297 397 rmoveto
          -38 callgsubr
          hintmask 1111111111000000
          -41 callsubr
          107 627 -73 callsubr
          607 -57 13 callsubr
        </CharString>
        <CharString name="threesuperior">
          -7 107 43 200 17 91 49 257 42 hstem
          7 107 51 47 178 133 -90 127 vstem
          474 569 -73 callsubr
          endchar
        </CharString>
        <CharString name="tilde">
          34 610 49 -6 49 hstem
          255 328 vstem
          556 683 rmoveto
          1 2 1 3 2 vvcurveto
          5 -4 3 -5 vhcurveto
          -16 -4 -41 -41 -47 -44 37 -48 hhcurveto
          -39 -38 -61 -7 -5 6 -4 5 hvcurveto
          10 10 30 43 46 38 -36 46 hhcurveto
          37 26 43 29 17 hvcurveto
          endchar
        </CharString>
        <CharString name="trademark">
          27 474 14 22 -20 171 31 -11 11 hstemhm
          122 34 94 19 10 18 43 30 52 39 hintmask 1110111110000000
          525 692 rmoveto
          -32 -63 -75 -75 -61 hvcurveto
          3 37 -2 -6 11 vvcurveto
          74 0 34 -36 -4 -37 -74 -9 -4 vhcurveto
          -21 -43 -18 -47 -25 vvcurveto
          -11 3 -6 9 vhcurveto
          16 hlineto
          -6 2 -2 6 10 vvcurveto
          42 33 75 33 49 vhcurveto
          3 -21 1 -26 -26 vvcurveto
          -36 -3 -33 -6 -9 vhcurveto
          -2 4 6 -2 4 hhcurveto
          24 71 111 38 46 hvcurveto
          -24 -45 -39 -82 -31 vvcurveto
          -13 4 -9 16 11 30 7 8 -9 callsubr
          -1 vhcurveto
          -5 -4 -4 -3 hhcurveto
          -8 -3 8 9 52 56 114 28 21 hvcurveto
          -246 -3 rmoveto
          4 -1 -4 1 -6 -8 -11 -2 -15 hhcurveto
          -99 hlineto
          -25 -20 -20 -27 -2 1 -2 2 hvcurveto
          0 26 30 11 4 vhcurveto
          hintmask 1101111110000000
          4 13 23 2 8 hhcurveto
          7 hlineto
          -24 -24 -54 -127 -36 vvcurveto
          -11 4 -6 9 vhcurveto
          30 hlineto
          -6 2 -2 6 10 vvcurveto
          45 37 89 43 52 vhcurveto
          23 19 -3 -18 hvcurveto
          -6 -3 -8 -4 vvcurveto
          -2 2 0 2 3 15 29 16 vhcurveto
          1 0 2 1 vvcurveto
          endchar
        </CharString>
        <CharString name="two">
          88 -18 112 -82 -21 119 59 588 60 hstem
          8 83 37 110 253 165 vstem
          600 547 rmoveto
          1 10 1 9 9 vvcurveto
          110 -98 31 -92 -88 -174 -44 -135 -37 19 -20 26 13 15 5 11 16 vhcurveto
          -3 9 -1 9 10 vvcurveto
          74 80 85 76 68 32 -41 -51 -32 -13 -37 -24 -31 vhcurveto
          -144 -184 -281 -98 1 -183 rrcurveto
          -27 15 -11 15 vhcurveto
          61 -42 103 63 hhcurveto
          43 64 -54 -17 23 hvcurveto
          -24 32 48 -13 41 hhcurveto
          106 55 80 87 3 hvcurveto
          -27 hlineto
          -58 -1 -48 -15 -51 hhcurveto
          -33 -114 16 19 -57 hvcurveto
          6 -18 -54 16 -32 -3 -3 0 -3 hhcurveto
          33 62 159 79 81 41 90 46 107 77 17 108 rrcurveto
          endchar
        </CharString>
        <CharString name="twosuperior">
          11 120 92 -67 -21 102 48 485 49 hstem
          5 67 31 89 206 135 vstem
          474 571 -66 callgsubr
          endchar
        </CharString>
        <CharString name="u">
          -31 0 callgsubr
          40 callgsubr
          hintmask 10111000
          -88 callgsubr
          hintmask 01111000
          -90 callgsubr
          endchar
        </CharString>
        <CharString name="uacute">
          -31 0 callgsubr
          123 35 callgsubr
          24 104 130 241 -236 93 hintmask 10111010
          -88 callgsubr
          hintmask 01111010
          -87 callsubr
          hintmask 10111100
          -3 -18 -1 -16 -16 vvcurveto
          hintmask 01111010
          -43 callgsubr
          40 6 callsubr
          -62 376 -103 callgsubr
        </CharString>
        <CharString name="ucircumflex">
          -31 0 callgsubr
          311 67 40 callgsubr
          186 47 hintmask 10111110
          -88 callgsubr
          hintmask 01111110
          -90 callgsubr
          -44 304 -106 callsubr
        </CharString>
        <CharString name="udieresis">
          -31 0 callgsubr
          138 96 hstemhm
          24 104 67 91 -23 93 53 91 hintmask 10111101
          -88 callgsubr
          hintmask 01111101
          -90 callgsubr
          -46 353 rmoveto
          -104 callgsubr
          -187 hmoveto
          5 1 1 4 6 vvcurveto
          hintmask 10111011
          -100 callgsubr
          endchar
        </CharString>
        <CharString name="ugrave">
          -31 0 callgsubr
          117 138 40 callgsubr
          hintmask 10111100
          -88 callgsubr
          hintmask 01111100
          -90 callgsubr
          -305 375 -96 callgsubr
        </CharString>
        <CharString name="underscore">
          278 -166 66 hstem
          -47 805 vstem
          -100 vmoveto
          4 callsubr
          758 hlineto
          13 34 54 9 -37 callsubr
          endchar
        </CharString>
        <CharString name="uni0002">
          -480 endchar
        </CharString>
        <CharString name="uni00A0">
          -190 endchar
        </CharString>
        <CharString name="uni00AD">
          10 26 callsubr
          200 288 rmoveto
          -13 callsubr
          279 -28 callsubr
        </CharString>
        <CharString name="v">
          -76 -6 65 -27 36 321 -20 hstemhm
          22 104 140 46 hintmask 01111000
          474 198 rmoveto
          5 8 2 16 12 -7 callsubr
          7 -2 -3 -32 -56 -14 -16 vhcurveto
          -15 -17 -17 -7 -16 hhcurveto
          -27 -22 23 42 -2 hvcurveto
          20 38 25 32 62 vvcurveto
          24 -7 22 -25 -42 -23 -59 -59 -17 2 -16 3 -14 vhcurveto
          hintmask 10111000
          -79 -30 -57 -99 -40 hhcurveto
          -24 -9 16 24 60 74 183 53 45 -8 callsubr
          -39 28 callgsubr
          -73 -36 -133 -51 vvcurveto
          -53 23 -33 32 95 50 78 110 73 vhcurveto
          -38 14 28 -18 31 hhcurveto
          37 39 25 48 27 hvcurveto
          endchar
        </CharString>
        <CharString name="w">
          197 -6 64 -26 34 333 -20 hstemhm
          22 104 396 40 hintmask 01111000
          745 246 rmoveto
          -45 -25 -33 -42 -37 hhcurveto
          -25 -26 25 40 hvcurveto
          18 39 26 31 63 vvcurveto
          24 -7 21 -25 -38 -27 -54 -61 -18 2 -17 3 -15 vhcurveto
          -39 -14 -65 -146 -77 hhcurveto
          -18 -12 12 32 40 23 58 6 16 hvcurveto
          25 72 31 77 32 19 rrcurveto
          -1 -3 -8 0 -9 -18 -25 7 callsubr
          -30 -21 -27 -32 -20 hvcurveto
          -39 -25 -98 -221 30 callsubr
          29 81 70 115 -10 vvcurveto
          3 -1 1 -2 -67 -38 28 callgsubr
          -73 -42 -133 -53 vvcurveto
          hintmask 10111000
          -53 26 -29 32 41 64 20 113 81 vhcurveto
          -2 -11 -2 -13 -15 vvcurveto
          -48 16 -47 68 91 54 64 134 77 vhcurveto
          3 -10 rlineto
          -39 12 28 -17 31 hhcurveto
          38 73 32 80 8 -1 6 -2 -2 -1 -2 -3 -2 hvcurveto
          endchar
        </CharString>
        <CharString name="x">
          -32 -9 66 -36 -21 399 -20 hstemhm
          -57 543 hintmask 10110000
          520 50 callgsubr
          3 16 -34 callgsubr
          6 -3 -5 -50 -91 -29 -23 vhcurveto
          -26 -21 -45 -55 -39 hhcurveto
          -43 -29 91 59 -19 hvcurveto
          66 69 61 62 69 61 rrcurveto
          -6 -11 1 -13 hhcurveto
          -18 -19 -2 -8 -7 hvcurveto
          -48 -54 -46 -56 -36 -36 -18 56 -15 59 -7 40 rrcurveto
          -52 hlineto
          -41 -5 -82 -80 -43 hvcurveto
          -3 -6 -1 -9 -9 vvcurveto
          -12 2 -12 3 -22 callgsubr
          1 vhcurveto
          33 53 16 37 12 24 11 -46 15 -49 14 -39 rrcurveto
          hintmask 01110000
          -87 -85 -71 -66 -22 -20 rrcurveto
          74 hlineto
          36 45 42 40 42 44 rrcurveto
          hintmask 10110000
          -88 25 32 -50 59 hhcurveto
          53 65 62 40 33 hvcurveto
          27 33 22 36 23 39 rrcurveto
          endchar
        </CharString>
        <CharString name="y">
          5 callsubr
          49 callsubr
          hintmask 10111100
          9 callgsubr
          hintmask 11011100
          -90 callsubr
          endchar
        </CharString>
        <CharString name="yacute">
          5 callsubr
          117 138 49 callsubr
          148 241 hintmask 10111111
          9 callgsubr
          hintmask 11011111
          -90 callsubr
          -17 181 -103 callgsubr
        </CharString>
        <CharString name="ydieresis">
          5 callsubr
          129 96 49 callsubr
          96 34 callsubr
          hintmask 1011111110000000
          9 callgsubr
          hintmask 1101111110000000
          -90 callsubr
          10 155 -104 callsubr
        </CharString>
        <CharString name="yen">
          175 -7 43 171 58 55 58 246 81 -7 -20 hstem
          52 callgsubr
          vstem
          727 -18 callsubr
          -21 82 -29 108 -23 73 rrcurveto
          68 -22 -9 28 -45 hhcurveto
          -56 -75 -44 -44 -41 hvcurveto
          -1 -1 -1 -2 -2 vvcurveto
          -5 3 -7 3 vhcurveto
          0 -22 callgsubr
          vhcurveto
          25 30 24 12 18 hhcurveto
          23 16 -17 -29 12 hvcurveto
          27 -66 37 -96 18 -79 rrcurveto
          -57 hlineto
          4 callgsubr
          110 hlineto
          -3 0 -4 -3 vvcurveto
          -27 -7 -31 -11 -33 vhcurveto
          -93 hlineto
          4 callgsubr
          116 hlineto
          -16 -46 -13 -42 -8 -37 rrcurveto
          45 callsubr
          24 9 41 10 37 vhcurveto
          96 hlineto
          13 31 47 9 -37 callsubr
          -120 hlineto
          13 34 15 34 17 33 rrcurveto
          76 hlineto
          13 31 47 9 -37 callsubr
          -88 hlineto
          100 172 119 115 99 69 rrcurveto
          endchar
        </CharString>
        <CharString name="z">
          38 callsubr
          hstemhm
          20 487 hintmask 10101000
          498 50 callgsubr
          4 17 13 vvcurveto
          9 -2 6 -3 -5 -49 -90 -45 callgsubr
          -77 -10 -57 -96 -50 hvcurveto
          -5 -8 -2 -14 -12 vvcurveto
          -10 2 -9 2 3 58 93 7 7 vhcurveto
          hintmask 11011000
          17 18 23 9 40 -16 callgsubr
          68 67 80 140 84 hvcurveto
          endchar
        </CharString>
        <CharString name="zcaron">
          38 callsubr
          75 -20 hstemhm
          20 487 hintmask 10101100
          498 201 rmoveto
          7 13 3 15 -26 callsubr
          -4 -47 -87 -45 callgsubr
          -91 -18 -115 -86 -57 hvcurveto
          -9 -14 -3 -16 -1 -11 rrcurveto
          -8 2 -5 3 9 32 60 26 16 vhcurveto
          hintmask 11011100
          55 32 18 34 76 -16 callgsubr
          63 80 81 139 76 hvcurveto
          -253 405 -92 callsubr
        </CharString>
        <CharString name="zero">
          130 -14 103 651 77 hstem
          23 165 459 85 vstem
          596 340 rmoveto
          13 45 7 46 43 vvcurveto
          122 -56 99 -134 -245 -156 -276 -205 -124 55 -102 131 192 142 178 174 51 vhcurveto
          -106 -51 rmoveto
          -136 -44 -87 -117 -101 hhcurveto
          -89 -39 77 109 187 116 243 144 91 40 -80 -105 -55 -11 -62 -20 -61 hvcurveto
          endchar
        </CharString>
      <CharString index="0">
        -86 callsubr
        130 35 108 14 -12 -14 -9 -17 -10 -18 -44 -78 -25 -63 -33 -79 -47 callsubr
        -30 -72 -59 -147 -76 vvcurveto
        -29 -84 callsubr
        -95 -45 -171 -19 -99 callgsubr
        return
      </CharString>
      <CharString index="1">
        545 -71 callgsubr
        -2 -2 -2 -5 -3 vhcurveto
        -61 -32 -65 -110 -51 hhcurveto
        -101 callsubr
        81 87 143 64 38 vhcurveto
        -183 133 -78 callsubr
        return
      </CharString>
      <CharString index="2">
        -81 43 -30 72 127 125 180 180 120 vhcurveto
        -54 -117 -38 -121 -49 vvcurveto
        -43 15 -31 49 32 99 23 -43 callsubr
        -14 -56 callgsubr
        58 111 43 33 rrcurveto
        -62 hlineto
        -47 -35 -36 -85 -45 hvcurveto
        -132 -71 -252 -389 -124 hhcurveto
        -38 -13 27 36 66 42 97 13 30 hvcurveto
        35 86 115 247 70 53 rrcurveto
        -180 hlineto
        -61 callsubr
        -86 -82 23 callgsubr
        -43 -102 callsubr
        -6 -7 -10 -19 -3 -5 rrcurveto
        return
      </CharString>
      <CharString index="3">
        5 1 1 4 6 vvcurveto
        -100 callgsubr
        return
      </CharString>
      <CharString index="4">
        rmoveto
        2 -22 callgsubr
        vvcurveto
        8 -34 20 -18 20 callgsubr
        -1 -2 vhcurveto
        -49 -35 -77 -59 -14 -7 rrcurveto
        -3 17 -9 6 5 98 54 30 71 vhcurveto
        endchar
      </CharString>
      <CharString index="5">
        105 vstem
        645 562 rmoveto
        73 -55 63 -130 vhcurveto
        -196 -93 callsubr
        73 72 182 22 55 vhcurveto
        42 102 71 153 60 81 rrcurveto
        102 -6 37 -42 -71 vvcurveto
        -6 -126 -123 -44 -113 -14 rrcurveto
        -11 -1 -3 -7 -8 vvcurveto
        -45 93 -302 88 vhcurveto
        0 41 -3 36 18 18 1 2 10 vhcurveto
        -65 69 -98 112 -47 163 32 6 rcurveline
        108 20 118 66 124 vvcurveto
        return
      </CharString>
      <CharString index="6">
        431 -82 callsubr
        -21 35 49 27 7 31 12 32 hvcurveto
        -7 13 23 -4 26 hhcurveto
        92 86 47 77 42 -37 38 -62 -137 -113 -145 -131 -95 66 -37 69 132 74 117 96 56 hvcurveto
        -101 136 -77 callsubr
        return
      </CharString>
      <CharString index="7">
        16 -16 27 -15 -31 -39 -68 -19 -11 10 -6 11 24 12 40 10 38 vhcurveto
        return
      </CharString>
      <CharString index="8">
        -130 hhcurveto
        -52 -18 17 34 39 53 callgsubr
        33 80 hvcurveto
        247 -44 callgsubr
        -261 hlineto
        37 86 43 83 53 79 rrcurveto
        23 15 23 3 37 hhcurveto
        50 39 -79 callsubr
        return
      </CharString>
      <CharString index="9">
        -67 3 13 -69 77 hhcurveto
        46 56 22 27 19 hvcurveto
        -6 9 rlineto
        -9 -14 -12 -4 -11 hhcurveto
        -53 -6 85 33 101 30 129 24 98 hvcurveto
        17 72 35 111 35 33 rrcurveto
        -175 -141 rmoveto
        -18 -67 -24 -93 -16 -88 rrcurveto
        -192 hlineto
        83 86 85 85 82 77 rrcurveto
        return
      </CharString>
      <CharString index="10">
        -99 callsubr
        -4 -25 -9 -69 -38 vvcurveto
        return
      </CharString>
      <CharString index="11">
        rmoveto
        -30 71 97 -54 6 hhcurveto
        -95 callgsubr
      </CharString>
      <CharString index="12">
        6 18 9 3 -1 hvcurveto
        -15 7 -76 59 -49 35 rrcurveto
        1 -2 -3 1 -3 hhcurveto
        -17 -35 -20 -8 -1 1 -1 2 -1 hvcurveto
        endchar
      </CharString>
      <CharString index="13">
        0 callsubr
        hintmask 11011110
        -106 callgsubr
        hintmask 11101110
        -55 callgsubr
        return
      </CharString>
      <CharString index="14">
        -13 -6 12 18 61 49 94 39 77 hvcurveto
        7 14 21 37 12 9 rrcurveto
        -3 -3 0 -4 -48 callgsubr
        -81 callsubr
        return
      </CharString>
      <CharString index="15">
        46 hintmask 01111100
        -83 callgsubr
        hintmask 10111100
        -80 callsubr
        hintmask 01111010
        -62 callgsubr
        hintmask 10111100
        -72 callsubr
        hintmask 01111010
        33 13 -23 -30 2 hvcurveto
        return
      </CharString>
      <CharString index="16">
        rmoveto
        -95 callsubr
        return
      </CharString>
      <CharString index="17">
        -87 callsubr
        -51 callgsubr
        40 6 callsubr
        return
      </CharString>
      <CharString index="18">
        -11 -9 -2 -3 -1 hvcurveto
        -55 -126 -129 -289 -39 -99 -5 37 13 4 -87 209 rrcurveto
        -45 106 -12 62 40 vvcurveto
        37 11 14 3 5 vhcurveto
        -122 -83 callsubr
        75 132 312 62 138 vhcurveto
        4 -48 16 -67 39 -91 return
      </CharString>
      <CharString index="19">
        521 201 18 callgsubr
        16 11 vvcurveto
        9 -2 7 -56 callsubr
        69 98 203 35 24 hvcurveto
        -52 callgsubr
        return
      </CharString>
      <CharString index="20">
        -20 callsubr
        -21 11 -17 23 hvcurveto
        -85 callsubr
        return
      </CharString>
      <CharString index="21">
        -19 callsubr
        -217 -195 -273 -216 -106 -39 80 97 220 189 256 221 67 59 -30 -81 15 vhcurveto
        return
      </CharString>
      <CharString index="22">
        138 19 callsubr
        hintmask 10111100
        278 -21 callsubr
        hintmask 01111100
        -105 callgsubr
        return
      </CharString>
      <CharString index="23">
        hintmask 10111110
        278 -21 callsubr
        hintmask 01111110
        -105 callgsubr
        return
      </CharString>
      <CharString index="24">
        -76 callsubr
        66 -27 60 -92 -19 callgsubr
        vhcurveto
        return
      </CharString>
      <CharString index="25">
        -80 callsubr
        -62 callgsubr
        -72 callsubr
        33 13 -23 -30 2 hvcurveto
        return
      </CharString>
      <CharString index="26">
        2 1 -63 callsubr
        return
      </CharString>
      <CharString index="27">
        -60 callsubr
        -4 -48 -85 -32 -24 vhcurveto
        -36 -28 -36 -25 -16 hhcurveto
        return
      </CharString>
      <CharString index="28">
        rmoveto
        1 -17 callgsubr
        8 -22 5 -22 -20 -20 -4 -9 -1 vhcurveto
        -7 -45 -22 -79 -48 -72 rrcurveto
        -3 5 5 -1 4 hhcurveto
        36 78 119 79 34 hvcurveto
        endchar
      </CharString>
      <CharString index="29">
        -91 callgsubr
        endchar
      </CharString>
      <CharString index="30">
        hintmask 1101111110000000
        -106 callgsubr
        hintmask 1110111110000000
        -55 callgsubr
        return
      </CharString>
      <CharString index="31">
        hvcurveto
        48 -13 -65 callgsubr
        29 -23 38 return
      </CharString>
      <CharString index="32">
        -163 -181 -334 -326 -103 -94 rrcurveto
        100 hlineto
        73 87 76 82 85 90 rrcurveto
        return
      </CharString>
      <CharString index="33">
        rmoveto
        -85 -6 -27 -71 -29 hvcurveto
        -43 -105 -33 -122 -46 -111 -28 -67 -52 -93 -71 -1 rrcurveto
        -50 callgsubr
        201 78 224 133 48 hvcurveto
        46 129 33 109 48 31 rrcurveto
        return
      </CharString>
      <CharString index="34">
        -12 callgsubr
        -88 callsubr
        return
      </CharString>
      <CharString index="35">
        vstem
        700 373 rmoveto
        -44 -2 -141 -2 -103 -1 40 91 51 111 19 42 rrcurveto
        0 -17 callgsubr
        1 -1 0 -3 -18 -72 -23 -17 -5 vhcurveto
        -12 -38 -36 -96 -29 -72 rrcurveto
        -72 -127 8 -39 hhcurveto
        -19 -44 -54 -10 -1 -9 callsubr
        hvcurveto
        6 78 116 1 85 hhcurveto
        -35 -84 -52 -120 -42 -78 rrcurveto
        -54 callgsubr
        35 callsubr
        2 18 75 23 17 4 vhcurveto
        10 43 47 128 33 66 3 6 rcurveline
        -1 84 127 -8 37 hhcurveto
        19 44 53 10 -37 callsubr
        return
      </CharString>
      <CharString index="36">
        201 -65 callsubr
        return
      </CharString>
      <CharString index="37">
        -15 callgsubr
        -83 53 -50 54 -57 vhcurveto
        40 -43 53 -52 -73 vvcurveto
        -85 -73 -63 -78 -58 -38 32 45 -5 callsubr
        -90 91 -34 114 151 124 102 123 53 -22 56 -54 54 hvcurveto
        14 callsubr
        44 38 -22 -36 -31 -30 -35 -37 25 callsubr
        26 -12 29 5 6 0 1 6 vhcurveto
        return
      </CharString>
      <CharString index="38">
        hhcurveto
        -38 2 -14 28 36 vvcurveto
        42 19 54 17 35 vhcurveto
        47 23 51 87 61 hhcurveto
        return
      </CharString>
      <CharString index="39">
        vstem
        363 -46 callgsubr
        67 22 159 44 102 hhcurveto
        33 37 -2 -6 22 hvcurveto
        -66 -23 -85 -174 -32 -80 rrcurveto
        -89 -36 -136 -350 -126 -25 callgsubr
        111 433 136 48 vhcurveto
        74 208 17 12 102 78 rrcurveto
        return
      </CharString>
      <CharString index="40">
        -4 7 7 -2 8 hhcurveto
        34 33 35 40 21 -11 17 -23 hvcurveto
        -2 -2 37 callsubr
        2 17 56 81 16 18 rrcurveto
        1 -4 -3 1 -4 hhcurveto
        -46 -53 -86 -28 -15 hvcurveto
        -12 -23 -8 -25 -20 vvcurveto
        -19 6 -15 16 -9 vhcurveto
        return
      </CharString>
      <CharString index="41">
        rmoveto
        1 9 1 8 8 vvcurveto
        87 -81 24 -82 -71 -134 -35 -101 -37 22 -24 27 10 10 3 7 11 vhcurveto
        -3 9 -2 9 10 vvcurveto
        59 55 59 57 47 20 -28 -36 -104 -139 -79 -87 -64 vhcurveto
        -65 -48 -68 -64 -78 vvcurveto
        -28 10 -12 15 vhcurveto
        50 -37 88 57 44 75 -92 89 hhcurveto
        89 32 64 74 hvcurveto
        -19 hlineto
        -50 -34 -11 -41 -68 -92 26 29 -83 vhcurveto
        115 150 240 -7 29 175 rrcurveto
        return
      </CharString>
      <CharString index="42">
        -50 13 -34 -52 callsubr
        return
      </CharString>
      <CharString index="43">
        -192 -120 -509 -235 -92 hvcurveto
        -8 callgsubr
        -31 callgsubr
        83 87 143 64 38 vhcurveto
        -121 518 -32 callgsubr
        return
      </CharString>
      <CharString index="44">
        rmoveto
        13 8 6 11 11 vvcurveto
        17 -16 16 -23 -37 -38 -44 -39 -14 10 -12 16 -6 vhcurveto
        19 9 27 33 29 1 42 callgsubr
        hhcurveto
        return
      </CharString>
      <CharString index="45">
        -167 62 rmoveto
        -2 -2 37 callsubr
        -33 -21 -23 -36 -29 13 -26 21 -18 hvcurveto
        return
      </CharString>
      <CharString index="46">
        -265 -237 -252 -269 -160 100 -59 148 return
      </CharString>
      <CharString index="47">
        -61 -126 -61 -234 -59 -111 rrcurveto
        61 hlineto
        43 39 118 62 35 hvcurveto
        57 32 59 93 62 hhcurveto
        23 9 -13 -15 -50 -70 -28 -57 -19 -11 -41 -48 -74 23 -69 59 67 55 61 39 30 hvcurveto
        27 36 25 39 6 callsubr
        -98 518 rmoveto
        10 4 -7 -11 -28 -25 -52 -5 -9 hvcurveto
        -45 -90 -69 -86 -66 -77 rrcurveto
        136 53 95 224 48 hhcurveto
        return
      </CharString>
      <CharString index="48">
        84 hintmask 11111000
        27 callsubr
        hintmask 11110100
        -98 callsubr
        return
      </CharString>
      <CharString index="49">
        -23 callgsubr
        6 -4 return
      </CharString>
      <CharString index="50">
        -61 callsubr
        -85 return
      </CharString>
      <CharString index="51">
        -4 -10 hhcurveto
        -27 -8 26 29 98 78 178 57 115 hvcurveto
        36 72 return
      </CharString>
      <CharString index="52">
        88 96 167 94 22 18 -9 -23 7 vhcurveto
        return
      </CharString>
      <CharString index="53">
        0 -16 callsubr
        vhcurveto
        return
      </CharString>
      <CharString index="54">
        482 199 18 callgsubr
        16 11 vvcurveto
        10 -3 7 -3 -4 -48 -86 -31 -24 vhcurveto
        -42 -32 -40 -24 -19 hhcurveto
        -38 -8 70 68 -7 hvcurveto
        71 11 89 41 80 vvcurveto
        31 -23 21 -39 -74 -91 -83 -72 -56 vhcurveto
        18 50 rlineto
        118 115 157 187 102 vvcurveto
        27 -13 23 -42 -107 -85 -194 -78 -38 vhcurveto
        return
      </CharString>
      <CharString index="55">
        -1 -4 -7 0 -8 -17 -21 1 -10 hhcurveto
        -30 -21 -27 -31 -20 hvcurveto
        return
      </CharString>
      <CharString index="56">
        -3 -18 -1 -16 -16 vvcurveto
        -43 callgsubr
        return
      </CharString>
      <CharString index="57">
        -23 -16 13 22 -20 callgsubr
        -38 -19 -41 -29 -47 47 -15 43 return
      </CharString>
      <CharString index="58">
        14 11 -6 -15 -6 -1 -6 -3 -7 hvcurveto
        -28 -73 -47 -120 -65 -11 callgsubr
        return
      </CharString>
      <CharString index="59">
        -29 callgsubr
        -62 -41 -105 -45 -18 hvcurveto
        return
      </CharString>
      <CharString index="60">
        rmoveto
        -165 -173 rlineto
        48 hlineto
        111 100 rlineto
        0 -159 -431 -29 -68 vhcurveto
        106 hlineto
        16 84 122 353 58 135 rrcurveto
        return
      </CharString>
      <CharString index="61">
        698 -41 callgsubr
        return
      </CharString>
      <CharString index="62">
        12 callgsubr
        -41 -53 -64 -37 -64 1 rrcurveto
        -35 -36 11 26 -32 hvcurveto
        108 105 128 125 89 82 rrcurveto
        3 -9 -11 4 -10 hhcurveto
        -7 -7 -2 -5 -4 hvcurveto
        -24 -21 -15 -10 -28 hhcurveto
        -23 -31 6 9 -50 hvcurveto
        -12 2 rlineto
        3 -19 -17 3 -16 hhcurveto
        return
      </CharString>
      <CharString index="63">
        hlineto
        13 24 40 8 0 35 callsubr
        hvcurveto
        return
      </CharString>
      <CharString index="64">
        -62 24 -21 32 47 60 6 callgsubr
        return
      </CharString>
      <CharString index="65">
        -32 callsubr
        -21 callgsubr
        24 callsubr
        return
      </CharString>
      <CharString index="66">
        rmoveto
        -39 callsubr
        return
      </CharString>
      <CharString index="67">
        -1 3 -2 vhcurveto
        -16 callsubr
        0 vhcurveto
        -9 -16 return
      </CharString>
      <CharString index="68">
        rmoveto
        3 10 2 10 9 vvcurveto
        35 -23 30 -51 -81 -49 -63 -54 -37 22 -29 50 66 46 43 46 15 vhcurveto
        -56 70 rmoveto
        21 -3 9 -16 -19 vvcurveto
        -39 -36 -54 -46 -26 -12 17 22 39 35 54 45 vhcurveto
        3 4 -1 3 hhcurveto
        endchar
      </CharString>
      <CharString index="69">
        -34 callsubr
        0 vhcurveto
        4 -20 3 -15 -8 -7 -1 -2 -2 vhcurveto
        return
      </CharString>
      <CharString index="70">
        -71 callgsubr
        -4 -47 51 callsubr
        return
      </CharString>
      <CharString index="71">
        rmoveto
        -87 callgsubr
        return
      </CharString>
      <CharString index="72">
        -54 -44 callsubr
        return
      </CharString>
      <CharString index="73">
        11 -7 callsubr
        return
      </CharString>
      <CharString index="74">
        rmoveto
        7 5 3 8 8 vvcurveto
        15 -9 7 -15 -45 -50 -31 -29 -18 36 -26 19 8 33 48 13 13 vhcurveto
        endchar
      </CharString>
      <CharString index="75">
        -49 callsubr
        159 59 92 207 51 hhcurveto
        return
      </CharString>
      <CharString index="76">
        8 17 12 4 8 hhcurveto
        13 5 -8 -12 -15 -8 -20 -6 -16 hvcurveto
        -31 -72 -32 -97 -56 vvcurveto
        -36 13 -32 46 return
      </CharString>
      <CharString index="77">
        -9 45 -15 -21 269 39 390 -20 return
      </CharString>
      <CharString index="78">
        -15 -24 7 callsubr
        return
      </CharString>
      <CharString index="79">
        89 -209 25 -39 3 -80 rrcurveto
        63 hlineto
        -2 5 0 6 7 vvcurveto
        124 214 500 84 55 vhcurveto
        return
      </CharString>
      <CharString index="80">
        rmoveto
        7 12 3 14 return
      </CharString>
      <CharString index="81">
        46 79 46 28 14 -24 -38 -18 -3 -21 -7 -22 hvcurveto
        return
      </CharString>
      <CharString index="82">
        hhcurveto
        -24 -26 14 41 hvcurveto
        2 1 2 2 vvcurveto
        -37 -4 -9 -47 -19 vvcurveto
        -59 41 -38 63 217 return
      </CharString>
      <CharString index="83">
        216 167 144 191 84 return
      </CharString>
      <CharString index="84">
        7 12 3 15 -34 callgsubr
        return
      </CharString>
      <CharString index="85">
        -9 callsubr
        1 return
      </CharString>
      <CharString index="86">
        2 -3 1 -6 -6 vvcurveto
        -38 -29 -86 -7 -20 vhcurveto
        -25 -68 -64 -151 1 -22 rrcurveto
        97 hlineto
        return
      </CharString>
      <CharString index="87">
        12 7 26 14 9 hvcurveto
        12 -5 -15 9 -16 hhcurveto
        return
      </CharString>
      <CharString index="88">
        -150 -93 -169 -124 return
      </CharString>
      <CharString index="89">
        vvcurveto
        -42 -38 -35 -44 -35 -21 19 27 14 5 20 14 14 vhcurveto
        10 -4 -14 8 -14 hhcurveto
        return
      </CharString>
      <CharString index="90">
        -34 callsubr
        vvcurveto
        return
      </CharString>
      <CharString index="91">
        hhcurveto
        40 74 -15 1 0 -129 -125 -97 -78 hvcurveto
        -31 -25 -39 -22 -34 vvcurveto
        -12 6 -8 11 17 23 19 30 25 vhcurveto
        2 3 3 1 5 38 73 -60 49 hhcurveto
        return
      </CharString>
      <CharString index="92">
        499 rmoveto
        47 7 40 52 52 vvcurveto
        55 -43 51 -123 -128 -107 -73 -120 return
      </CharString>
      <CharString index="93">
        27 61 14 61 56 vvcurveto
        128 return
      </CharString>
      <CharString index="94">
        25 18 24 35 40 104 -140 14 77 vvcurveto
        37 34 22 41 16 23 -8 -22 vhcurveto
        -27 -46 -6 -17 vvcurveto
        -21 16 -9 19 43 25 40 35 49 -51 15 -49 return
      </CharString>
      <CharString index="95">
        129 rmoveto
        1 5 1 4 3 vvcurveto
        7 -4 3 -3 -2 -3 callsubr
        return
      </CharString>
      <CharString index="96">
        vvcurveto
        -36 13 -32 46 -74 callsubr
        return
      </CharString>
      <CharString index="97">
        -1 35 318 38 279 24 -24 29 return
      </CharString>
      <CharString index="98">
        vvcurveto
        -94 117 -17 100 231 205 135 243 40 vhcurveto
        -105 -8 rmoveto
        -183 -42 -158 -144 -189 hhcurveto
        -64 -27 9 53 return
      </CharString>
      <CharString index="99">
        97 hlineto
        7 23 8 24 8 23 22 62 29 157 114 57 rrcurveto
        return
      </CharString>
      <CharString index="100">
        -8 38 -7 48 290 46 return
      </CharString>
      <CharString index="101">
        222 49 -91 callgsubr
        return
      </CharString>
      <CharString index="102">
        rmoveto
        4 16 2 17 16 vvcurveto
        58 -26 53 -68 -100 -60 -109 -89 return
      </CharString>
      <CharString index="103">
        vvcurveto
        -3 1 -1 1 37 callgsubr
        vhcurveto
        102 78 108 71 return
      </CharString>
      <CharString index="104">
        -18 callgsubr
        -35 -17 -37 -28 -54 60 -27 66 return
      </CharString>
      <CharString index="105">
        -9 vhcurveto
        78 -56 55 -55 68 -77 rrcurveto
        -1 -9 callsubr
        12 35 return
      </CharString>
      <CharString index="106">
        36 vstem
        415 610 rmoveto
        11 20 12 33 29 vvcurveto
        28 -13 24 -42 -155 -110 -348 -119 -39 vhcurveto
        return
      </CharString>
      <CharString index="107">
        -7 85 -84 65 330 -20 return
      </CharString>
      <CharString index="108">
        -1 -2 -1 vhcurveto
        return
      </CharString>
      <CharString index="109">
        1 -1 hvcurveto
        return
      </CharString>
      <CharString index="110">
        hvcurveto
        25 27 22 14 vvcurveto
        18 -16 10 -18 -33 -24 -32 -35 -43 34 -43 88 106 56 63 87 51 vhcurveto
        return
      </CharString>
      <CharString index="111">
        -14 -30 -47 -44 callsubr
        return
      </CharString>
      <CharString index="112">
        -25 -37 -5 -47 hhcurveto
        return
      </CharString>
      <CharString index="113">
        61 37 28 vhcurveto
        27 37 26 return
      </CharString>
      <CharString index="114">
        rrcurveto
        51 93 -16 -52 47 hvcurveto
        40 -45 17 -57 -59 vvcurveto
        -29 -4 -30 -7 -29 vhcurveto
        endchar
      </CharString>
      <CharString index="115">
        -62 rrcurveto
        -17 -10 -8 -7 -7 vvcurveto
        -6 8 -7 return
      </CharString>
      <CharString index="116">
        440 390 rmoveto
        -92 0 -32 -86 -36 hvcurveto
        return
      </CharString>
      <CharString index="117">
        22 -21 335 27 305 30 return
      </CharString>
      <CharString index="118">
        -86 12 callgsubr
        return
      </CharString>
      <CharString index="119">
        -32 -25 vhcurveto
        return
      </CharString>
      <CharString index="120">
        107 -10 callgsubr
        27 35 callgsubr
        39 119 return
      </CharString>
      <CharString index="121">
        858 697 rmoveto
        -11 -37 6 -24 hhcurveto
        return
      </CharString>
      <CharString index="122">
        9 callsubr
        9 vvcurveto
        return
      </CharString>
      <CharString index="123">
        hlineto
        -6 -9 -18 -11 -4 2 -3 4 hvcurveto
        return
      </CharString>
      <CharString index="124">
        -44 33 callgsubr
        360 45 -6 -20 return
      </CharString>
      <CharString index="125">
        rmoveto
        8 12 3 return
      </CharString>
      <CharString index="126">
        -23 -6 18 23 76 85 120 48 37 vhcurveto
        13 16 16 7 14 hhcurveto
        return
      </CharString>
      <CharString index="127">
        -3 -2 -1 return
      </CharString>
      <CharString index="128">
        -1 36 callgsubr
        return
      </CharString>
      <CharString index="129">
        0 -17 callgsubr
        4 -17 3 -13 -7 -6 1 callgsubr
        return
      </CharString>
      <CharString index="130">
        -12 -117 return
      </CharString>
      <CharString index="131">
        548 rmoveto
        4 0 5 4 vvcurveto
        73 -55 64 -129 vhcurveto
        return
      </CharString>
      <CharString index="132">
        85 237 35 -35 84 25 15 return
      </CharString>
      <CharString index="133">
        -35 callsubr
        -15 return
      </CharString>
      <CharString index="134">
        277 65 hstem
        93 return
      </CharString>
      <CharString index="135">
        -10 -55 -35 vhcurveto
        -46 return
      </CharString>
      <CharString index="136">
        17 callsubr
        27 138 34 callgsubr
        return
      </CharString>
      <CharString index="137">
        -17 -7 10 return
      </CharString>
      <CharString index="138">
        rrcurveto
        48 hlineto
        55 10 34 70 22 hvcurveto
        56 175 return
      </CharString>
      <CharString index="139">
        rmoveto
        10 -3 5 -11 -15 vvcurveto
        return
      </CharString>
      <CharString index="140">
        -7 84 -56 -21 return
      </CharString>
      <CharString index="141">
        hstem
        83 118 return
      </CharString>
      <CharString index="142">
        138 hstemhm
        return
      </CharString>
      <CharString index="143">
        -1 0 -1 return
      </CharString>
      <CharString index="144">
        1 -22 callgsubr
        return
      </CharString>
      <CharString index="145">
        114 hstem
        return
      </CharString>
      <CharString index="146">
        186 10 callgsubr
        return
      </CharString>
      <CharString index="147">
        hstemhm
        24 104 135 93 return
      </CharString>
      <CharString index="148">
        hstemhm
        73 65 185 83 return
      </CharString>
      <CharString index="149">
        2 0 1 return
      </CharString>
      <CharString index="150">
        108 vstem
        return
      </CharString>
      <CharString index="151">
        112 243 hstem
        91 171 vstem
        return
      </CharString>
      <CharString index="152">
        rmoveto
        5 4 2 6 6 vvcurveto
        11 -6 return
      </CharString>
      <CharString index="153">
        65 22 70 44 97 -69 15 28 57 return
      </CharString>
      <CharString index="154">
        138 hstem
        return
      </CharString>
      <CharString index="155">
        67 64 123 144 53 106 return
      </CharString>
      <CharString index="156">
        -21 27 48 265 15 15 37 return
      </CharString>
      <CharString index="157">
        201 rmoveto
        8 14 return
      </CharString>
      <CharString index="158">
        hstemhm
        3 120 return
      </CharString>
      <CharString index="159">
        203 118 return
      </CharString>
      <CharString index="160">
        46 138 return
      </CharString>
</ttFont>
